<svg id="vector" xmlns="http://www.w3.org/2000/svg" width="64" height="64" viewBox="0 0 128 128"><path fill="#000000" d="M122.25,56.75L122,56.75v-41A15.77,15.77 0,0 0,106.25 0L96.5,0a15.77,15.77 0,0 0,-15.75 15.75v8.43L78.61,24.18a1.75,1.75 0,0 0,-1.37 0.65L76,26.39a21.83,21.83 0,0 0,-4.71 11.89A5.76,5.76 0,0 0,66.03 44v3.55a1.75,1.75 0,0 0,1.75 1.75h37.43a1.75,1.75 0,0 0,1.75 -1.75L106.96,44a5.76,5.76 0,0 0,-5.26 -5.72A21.83,21.83 0,0 0,97 26.39l-1.24,-1.55a1.75,1.75 0,0 0,-1.37 -0.65L92.25,24.18L92.25,15.75A4.25,4.25 0,0 1,96.5 11.5h9.75a4.25,4.25 0,0 1,4.25 4.25v41L57.28,56.75c0,-0.02 0,-0.04 0,-0.06a9.06,9.06 0,0 0,-15.72 -6.14A8.22,8.22 0,0 0,36.7 49.26a12.36,12.36 0,0 0,-23.3 -0.01,8.26 8.26,0 0,0 -7.99,7.51A5.75,5.75 0,0 0,0 62.5v3a5.76,5.76 0,0 0,5.75 5.75L6,71.25v20A25.78,25.78 0,0 0,20.28 114.3l-1.83,4.31A6.76,6.76 0,0 0,30.9 123.88L33.81,117L94.19,117l2.91,6.88a6.76,6.76 0,0 0,12.44 -5.27L107.72,114.3A25.78,25.78 0,0 0,122 91.25v-20h0.25A5.76,5.76 0,0 0,128 65.5v-3A5.76,5.76 0,0 0,122.25 56.75ZM103.46,44v1.8L69.53,45.8L69.53,44a2.25,2.25 0,0 1,2.25 -2.25h29.43A2.25,2.25 0,0 1,103.46 44ZM94.26,28.58A18.32,18.32 0,0 1,98.2 38.25L74.8,38.25a18.32,18.32 0,0 1,3.93 -9.67l0.72,-0.89h14.1ZM106.25,8L96.5,8a7.76,7.76 0,0 0,-7.75 7.75v8.43h-4.5L84.25,15.75A12.26,12.26 0,0 1,96.5 3.5h9.75a12.26,12.26 0,0 1,12.25 12.25v41L114,56.75v-41A7.76,7.76 0,0 0,106.25 8ZM13.63,52.75a4.81,4.81 0,0 1,0.78 0.07,1.75 1.75,0 0,0 1.99,-1.35 8.86,8.86 0,0 1,17.33 0.11,1.75 1.75,0 0,0 2.17,1.34 4.62,4.62 0,0 1,4.7 1.34,1.75 1.75,0 0,0 2.8,-0.33 5.56,5.56 0,0 1,10.39 2.76v0.06L8.93,56.75A4.76,4.76 0,0 1,13.63 52.75ZM27.67,122.51a3.25,3.25 0,0 1,-3 1.99,3.26 3.26,0 0,1 -3,-4.53l1.83,-4.32c0.08,0.03 0.17,0.05 0.26,0.08 0.34,0.11 0.67,0.21 1.02,0.31 0.15,0.04 0.29,0.09 0.44,0.13 0.47,0.12 0.94,0.23 1.42,0.33 0.14,0.03 0.28,0.05 0.41,0.08 0.36,0.07 0.72,0.13 1.08,0.18 0.18,0.03 0.35,0.05 0.53,0.07q0.52,0.06 1.05,0.1c0.1,0.01 0.21,0.02 0.31,0.03ZM104.49,115.65 L106.32,119.97a3.26,3.26 0,0 1,-3 4.53,3.25 3.25,0 0,1 -3,-1.99l-2.36,-5.57c0.1,-0.01 0.21,-0.02 0.31,-0.03q0.53,-0.04 1.06,-0.1c0.17,-0.02 0.34,-0.04 0.52,-0.07 0.37,-0.05 0.74,-0.11 1.11,-0.18 0.13,-0.03 0.26,-0.04 0.4,-0.07q0.72,-0.14 1.42,-0.33c0.15,-0.04 0.29,-0.08 0.44,-0.13q0.51,-0.14 1.01,-0.31C104.32,115.7 104.41,115.68 104.49,115.65ZM118.5,91.25a22.28,22.28 0,0 1,-13.88 20.61c-0.6,0.25 -1.22,0.47 -1.84,0.66 -0.07,0.02 -0.14,0.04 -0.21,0.06 -0.63,0.19 -1.27,0.35 -1.91,0.48 -0.06,0.01 -0.12,0.02 -0.18,0.03 -0.66,0.13 -1.33,0.23 -2.01,0.3 -0.03,0 -0.06,0 -0.09,0.01 -0.71,0.07 -1.42,0.1 -2.13,0.1L31.75,113.5c-0.71,0 -1.41,-0.04 -2.1,-0.1l-0.13,-0.01c-0.67,-0.07 -1.32,-0.17 -1.98,-0.29 -0.07,-0.01 -0.14,-0.02 -0.21,-0.04 -0.64,-0.13 -1.27,-0.29 -1.9,-0.48 -0.07,-0.02 -0.15,-0.04 -0.22,-0.06 -0.62,-0.19 -1.23,-0.41 -1.84,-0.66A22.28,22.28 0,0 1,9.5 91.25v-20h109ZM124.5,65.5a2.25,2.25 0,0 1,-2.25 2.25L5.75,67.75A2.25,2.25 0,0 1,3.5 65.5v-3a2.25,2.25 0,0 1,2.25 -2.25h116.5a2.25,2.25 0,0 1,2.25 2.25Z" id="path_0"/></svg>