<svg id="vector" xmlns="http://www.w3.org/2000/svg" width="64" height="64" viewBox="0 0 64 64"><path fill="none" d="M57,24.36v-4A9.33,9.33 0,0 0,47.77 11L16.23,11A9.33,9.33 0,0 0,7 20.34v4A4.73,4.73 0,0 0,3 29L3,47a1,1 0,0 0,1 1L7,48L7,52a1,1 0,0 0,1 1h3.84a1,1 0,0 0,1 -0.81L13.64,48L50.36,48l0.83,4.27a1,1 0,0 0,1 0.81L56,53.08a1,1 0,0 0,1 -1L57,48h3a1,1 0,0 0,1 -1L61,29A4.73,4.73 0,0 0,57 24.36ZM16.23,13L47.77,13A7.32,7.32 0,0 1,55 20.34L55,24.5A4.74,4.74 0,0 0,51.63 29v3.11a3.83,3.83 0,0 0,-2.5 -0.94L34.88,31.17A3.86,3.86 0,0 0,32 32.51a3.86,3.86 0,0 0,-2.87 -1.3L14.88,31.21a3.83,3.83 0,0 0,-2.51 0.94L12.37,29A4.74,4.74 0,0 0,9 24.5L9,20.34A7.32,7.32 0,0 1,16.23 13ZM13,36.58v-1.5a1.88,1.88 0,0 1,1.88 -1.87L29.13,33.21A1.87,1.87 0,0 1,31 35.08v1.5a1.88,1.88 0,0 1,-1.87 1.88L14.88,38.46A1.88,1.88 0,0 1,13 36.58ZM33,36.58v-1.5a1.88,1.88 0,0 1,1.88 -1.87L49.13,33.21A1.87,1.87 0,0 1,51 35.08v1.5a1.88,1.88 0,0 1,-1.87 1.88L34.88,38.46A1.88,1.88 0,0 1,33 36.58ZM11,51L9,51L9,48L11.6,48ZM55,51L53,51L52.4,48L55,48ZM59,46L5,46L5,29a2.69,2.69 0,1 1,5.37 0L10.37,39.46a1,1 0,0 0,1 1L52.63,40.46a1,1 0,0 0,1 -1L53.63,29A2.69,2.69 0,1 1,59 29Z" id="path_0"/><path fill="none" d="M32,27.87a1,1 0,0 0,1 -1V16.25a1,1 0,0 0,-2 0V26.87A1,1 0,0 0,32 27.87Z" id="path_1"/></svg>