<svg
  id="vector"
  xmlns="http://www.w3.org/2000/svg"
  width="64"
  height="64"
  viewBox="0 0 511.99 511.99"
><path
    fill="#000000"
    d="m462.96,168.59c3.52,0 6.38,-2.85 6.38,-6.38l0,-96.63c0,-5.64 -3.14,-10.76 -8.19,-13.36 -17.87,-9.18 -37.15,-13.84 -57.3,-13.84s-39.43,4.66 -57.3,13.84c-0.64,0.33 -1.24,0.69 -1.81,1.1 -0.57,-0.4 -1.18,-0.77 -1.81,-1.1 -17.87,-9.18 -37.15,-13.84 -57.3,-13.84s-39.43,4.66 -57.3,13.84c-0.64,0.33 -1.24,0.69 -1.81,1.1 -0.57,-0.4 -1.18,-0.77 -1.81,-1.1 -17.87,-9.18 -37.15,-13.84 -57.3,-13.84s-39.43,4.66 -57.3,13.84c-5.05,2.6 -8.19,7.71 -8.19,13.36l0,39.28l-3.54,0c-5.53,-7.95 -14.72,-13.18 -25.12,-13.18 -16.86,0 -30.57,13.71 -30.57,30.57s13.71,30.57 30.57,30.57c10.4,0 19.59,-5.22 25.12,-13.18l3.54,0l0,318.94c0,5.06 2.53,9.74 6.75,12.52 2.48,1.63 5.34,2.47 8.21,2.47 2,-0 4.02,-0.41 5.92,-1.23 10.24,-4.42 21.06,-7.28 32.18,-8.5 3.5,-0.39 6.02,-3.53 5.64,-7.03 -0.39,-3.5 -3.54,-6.02 -7.03,-5.64 -12.38,1.36 -24.43,4.55 -35.83,9.47 -0.94,0.4 -1.7,0.06 -2.07,-0.19 -0.38,-0.25 -1.01,-0.82 -1.01,-1.87l0,-318.94l21.37,0c6.28,11.31 18.31,18.48 31.37,18.48 19.78,0 35.87,-16.09 35.87,-35.87s-16.09,-35.87 -35.87,-35.87c-13.1,0 -25.09,7.16 -31.37,18.47l-21.37,0l0,-39.28c0,-0.84 0.49,-1.61 1.27,-2.02 16.05,-8.25 33.37,-12.43 51.47,-12.43s35.42,4.18 51.47,12.43c0.78,0.4 1.26,1.17 1.27,2.01l0,0.01 0,185.66c0,3.52 2.85,6.38 6.38,6.38l0,0s0,0 0,0c3.52,0 6.38,-2.85 6.38,-6.38l0,-111.59l21.36,0c6.28,11.31 18.31,18.48 31.38,18.48 19.78,0 35.87,-16.09 35.87,-35.87s-16.09,-35.87 -35.87,-35.87c-13.16,0 -25.1,7.14 -31.38,18.47l-21.36,0l0,-39.28c0,-0 0,-0.01 0,-0.01 0,-0.84 0.49,-1.61 1.27,-2.01 16.05,-8.25 33.37,-12.43 51.47,-12.43s35.42,4.18 51.47,12.43c0.78,0.4 1.26,1.17 1.27,2.01l0,0.01 0,393.01 0,0.02c-0.01,1.04 -0.63,1.61 -1.01,1.86 -0.37,0.24 -1.13,0.59 -2.07,0.18 -15.73,-6.79 -32.44,-10.23 -49.66,-10.23s-33.93,3.44 -49.66,10.23c-0.94,0.4 -1.7,0.06 -2.07,-0.19 -0.38,-0.25 -1,-0.82 -1.01,-1.86 0,-0.01 0,-0.01 0,-0.02l0,-179.31c0,-3.52 -2.85,-6.38 -6.38,-6.38l-0,0s-0,0 -0,0c-3.52,0 -6.38,2.85 -6.38,6.38l0,179.31c0,0.01 0,0.01 0,0.02 -0.01,1.04 -0.63,1.61 -1.01,1.86 -0.37,0.24 -1.13,0.59 -2.07,0.19 -10.81,-4.67 -22.24,-7.78 -33.95,-9.25 -3.5,-0.45 -6.68,2.04 -7.12,5.53 -0.44,3.49 2.04,6.68 5.53,7.12 10.52,1.32 20.77,4.11 30.48,8.3 1.9,0.82 3.92,1.23 5.92,1.23 2.87,0 5.72,-0.83 8.21,-2.47 0.13,-0.09 0.25,-0.18 0.38,-0.27 0.13,0.09 0.25,0.18 0.38,0.27 4.22,2.77 9.5,3.24 14.13,1.24 14.13,-6.1 29.13,-9.19 44.61,-9.19s30.48,3.09 44.61,9.19c1.9,0.82 3.92,1.23 5.92,1.23 2.87,-0 5.72,-0.83 8.21,-2.47 0.13,-0.09 0.25,-0.18 0.38,-0.27 0.13,0.09 0.25,0.18 0.38,0.27 2.48,1.63 5.34,2.47 8.21,2.47 2,-0 4.02,-0.41 5.92,-1.23 14.13,-6.1 29.13,-9.19 44.61,-9.19s30.48,3.09 44.61,9.19c4.63,2 9.91,1.54 14.13,-1.24 4.23,-2.78 6.75,-7.46 6.75,-12.52l0,-268.34c0,-3.52 -2.85,-6.38 -6.38,-6.38s-6.38,2.85 -6.38,6.38l0,268.34c0,1.05 -0.63,1.62 -1.01,1.87 -0.37,0.24 -1.13,0.59 -2.07,0.19 -15.73,-6.79 -32.44,-10.23 -49.66,-10.23 -17.22,0 -33.93,3.44 -49.66,10.23 -0.94,0.41 -1.7,0.06 -2.07,-0.19 -0.38,-0.25 -1,-0.82 -1.01,-1.86 0,-0.01 0,-0.01 0,-0.02l0,-318.94l21.38,0c6.28,11.28 18.37,18.48 31.36,18.48 19.78,0 35.87,-16.09 35.87,-35.87s-16.09,-35.87 -35.87,-35.87c-13.08,0 -25.09,7.16 -31.37,18.47l-21.36,0l0,-39.28c0,-0 0,-0.01 0,-0.01 0,-0.84 0.49,-1.61 1.27,-2.01 16.04,-8.25 33.36,-12.43 51.47,-12.43 18.11,0 35.43,4.18 51.47,12.43 0.78,0.4 1.27,1.17 1.27,2.02l0,96.63c0,3.52 2.85,6.38 6.38,6.38zM73.23,140.09c-9.83,0 -17.82,-8 -17.82,-17.82s8,-17.82 17.82,-17.82 17.82,8 17.82,17.82 -7.99,17.82 -17.82,17.82zM103.45,117.62l11.72,0l0,9.29l-11.72,0c0.23,-1.52 0.35,-3.07 0.35,-4.65 -0,-1.58 -0.12,-3.13 -0.35,-4.65zM190.04,117.62c0.31,1.5 0.47,3.06 0.47,4.65 0,1.59 -0.16,3.14 -0.47,4.64l-62.12,0l0,-9.29zM152.16,139.66l30.43,0c-4.07,3.56 -9.39,5.73 -15.21,5.73 -5.69,0 -11.07,-2.11 -15.22,-5.73zM167.38,99.14c5.82,0 11.14,2.16 15.2,5.72l-30.43,0c4.14,-3.62 9.52,-5.72 15.23,-5.72zM270.39,139.66l30.43,0c-4.07,3.56 -9.39,5.73 -15.21,5.73 -5.69,0 -11.07,-2.11 -15.22,-5.73zM285.61,99.14c5.82,0 11.14,2.16 15.21,5.72l-30.44,0c4.13,-3.62 9.5,-5.72 15.23,-5.72zM308.27,117.62c0.31,1.5 0.47,3.06 0.47,4.65 0,1.59 -0.16,3.14 -0.47,4.64l-75.39,0l0,-9.29zM388.65,139.66l30.4,0c-4.07,3.56 -9.39,5.73 -15.21,5.73 -5.65,0 -11.04,-2.12 -15.19,-5.73zM403.84,99.14c5.82,0 11.14,2.16 15.21,5.72l-30.43,0c4.14,-3.62 9.52,-5.72 15.22,-5.72zM426.5,117.62c0.31,1.5 0.47,3.06 0.47,4.65 0,1.59 -0.16,3.14 -0.47,4.64l-75.39,0l0,-9.29z"
    id="path_0"
  /></svg>
