<svg id="vector" xmlns="http://www.w3.org/2000/svg" width="64" height="64" viewBox="0 0 100.35 100.35"><path fill="#231F20" d="M99.57,97.4L52.06,49.88L99.35,2.6c0.57,-0.57 0.57,-1.49 0,-2.06c-0.57,-0.57 -1.49,-0.57 -2.06,0L50,47.82L2.72,0.54c-0.57,-0.57 -1.49,-0.57 -2.06,0c-0.57,0.57 -0.57,1.49 0,2.06l47.28,47.28L0.43,97.4c-0.57,0.57 -0.57,1.49 0,2.06c0.28,0.28 0.66,0.43 1.03,0.43s0.75,-0.14 1.03,-0.43l47.51,-47.51l47.51,47.51c0.28,0.28 0.66,0.43 1.03,0.43s0.75,-0.14 1.03,-0.43C100.14,98.89 100.14,97.97 99.57,97.4z" id="path_0"/></svg>