<svg
  id="vector"
  xmlns="http://www.w3.org/2000/svg"
  width="64"
  height="64"
  viewBox="0 0 64 64"
><path
    fill="#00000000"
    d="M40,51L38,51"
    stroke-width="2"
    stroke="#000000"
    id="path_0"
  /><path
    fill="#00000000"
    d="M36,51H15c-1.1,0 -2,-0.9 -2,-2V15c0,-1.1 0.9,-2 2,-2h34c1.1,0 2,0.9 2,2v34c0,1.1 -0.9,2 -2,2h-7"
    stroke-width="2"
    stroke="#000000"
    id="path_1"
  /><path
    fill="#00000000"
    d="M25,17L27,17"
    stroke-width="2"
    stroke="#000000"
    id="path_2"
  /><path
    fill="#00000000"
    d="M29,17h16c1.1,0 2,0.9 2,2v26c0,1.1 -0.9,2 -2,2H19c-1.1,0 -2,-0.9 -2,-2V19c0,-1.1 0.9,-2 2,-2h4"
    stroke-width="2"
    stroke="#000000"
    id="path_3"
  /><path
    fill="#00000000"
    d="M17,10L17,2"
    stroke-width="2"
    stroke="#000000"
    id="path_4"
  /><path
    fill="#00000000"
    d="M27,10L27,2"
    stroke-width="2"
    stroke="#000000"
    id="path_5"
  /><path
    fill="#00000000"
    d="M37,10L37,2"
    stroke-width="2"
    stroke="#000000"
    id="path_6"
  /><path
    fill="#00000000"
    d="M47,10L47,2"
    stroke-width="2"
    stroke="#000000"
    id="path_7"
  /><path
    fill="#00000000"
    d="M17,62L17,54"
    stroke-width="2"
    stroke="#000000"
    id="path_8"
  /><path
    fill="#00000000"
    d="M27,62L27,54"
    stroke-width="2"
    stroke="#000000"
    id="path_9"
  /><path
    fill="#00000000"
    d="M37,62L37,54"
    stroke-width="2"
    stroke="#000000"
    id="path_10"
  /><path
    fill="#00000000"
    d="M47,62L47,54"
    stroke-width="2"
    stroke="#000000"
    id="path_11"
  /><path
    fill="#00000000"
    d="M54,17L62,17"
    stroke-width="2"
    stroke="#000000"
    id="path_12"
  /><path
    fill="#00000000"
    d="M54,27L62,27"
    stroke-width="2"
    stroke="#000000"
    id="path_13"
  /><path
    fill="#00000000"
    d="M54,37L62,37"
    stroke-width="2"
    stroke="#000000"
    id="path_14"
  /><path
    fill="#00000000"
    d="M54,47L62,47"
    stroke-width="2"
    stroke="#000000"
    id="path_15"
  /><path
    fill="#00000000"
    d="M2,17L10,17"
    stroke-width="2"
    stroke="#000000"
    id="path_16"
  /><path
    fill="#00000000"
    d="M2,27L10,27"
    stroke-width="2"
    stroke="#000000"
    id="path_17"
  /><path
    fill="#00000000"
    d="M2,37L10,37"
    stroke-width="2"
    stroke="#000000"
    id="path_18"
  /><path
    fill="#00000000"
    d="M2,47L10,47"
    stroke-width="2"
    stroke="#000000"
    id="path_19"
  /><path
    fill="#00000000"
    d="M17,23L33,23"
    stroke-linejoin="round"
    stroke-width="2"
    stroke="#000000"
    id="path_20"
  /><path
    fill="#00000000"
    d="M35,31m-2,0a2,2 0,1 1,4 0a2,2 0,1 1,-4 0"
    stroke-width="2"
    stroke="#000000"
    id="path_21"
  /><path
    fill="#00000000"
    d="M23,34m-2,0a2,2 0,1 1,4 0a2,2 0,1 1,-4 0"
    stroke-width="2"
    stroke="#000000"
    id="path_22"
  /><path
    fill="#00000000"
    d="M42,18l0,13l-6,0"
    stroke-linejoin="round"
    stroke-width="2"
    stroke="#000000"
    id="path_23"
  /><path
    fill="#00000000"
    d="M17,28l12,0l0,10l10,0"
    stroke-linejoin="round"
    stroke-width="2"
    stroke="#000000"
    id="path_24"
  /><path
    fill="#00000000"
    d="M34,47l0,-5l-11,0l0,-6"
    stroke-linejoin="round"
    stroke-width="2"
    stroke="#000000"
    id="path_25"
  /><path
    fill="#00000000"
    d="M39,36h4v4h-4z"
    stroke-linejoin="round"
    stroke-width="2"
    stroke="#000000"
    id="path_26"
  /><path
    fill="#00000000"
    d="M33,21h4v4h-4z"
    stroke-linejoin="round"
    stroke-width="2"
    stroke="#000000"
    id="path_27"
  /></svg>
