<svg
  id="vector"
  xmlns="http://www.w3.org/2000/svg"
  width="64"
  height="64"
  viewBox="0 0 423.25 423.25"
><path
    fill="#000000"
    d="M416.43,81.92H6.83C3.05,81.92 0,84.97 0,88.75V307.2c0,3.77 3.05,6.83 6.83,6.83h409.6c3.77,0 6.83,-3.05 6.83,-6.83V88.75C423.25,84.97 420.2,81.92 416.43,81.92zM409.6,300.37H13.65v-204.8H409.6V300.37z"
    id="path_0"
  /><path
    fill="#000000"
    d="M403.19,47.79H20.06C9,47.79 0,56.79 0,67.85v20.9c0,3.77 3.05,6.83 6.83,6.83h409.6c3.77,0 6.83,-3.05 6.83,-6.83v-20.9C423.25,56.79 414.25,47.79 403.19,47.79zM409.6,81.92H13.65V67.85c0,-3.53 2.87,-6.41 6.41,-6.41h383.13c3.53,0 6.41,2.87 6.41,6.41V81.92z"
    id="path_1"
  /><path
    fill="#000000"
    d="M416.43,300.37H6.83C3.05,300.37 0,303.43 0,307.2v20.9c0,11.06 9,20.06 20.06,20.06h383.13c11.06,0 20.06,-9 20.06,-20.06v-20.9C423.25,303.43 420.2,300.37 416.43,300.37zM409.6,328.1c0,3.53 -2.87,6.41 -6.41,6.41H20.06c-3.53,0 -6.41,-2.87 -6.41,-6.41v-14.07H409.6V328.1z"
    id="path_2"
  /><path
    fill="#000000"
    d="M259.41,334.51H163.84c-3.77,0 -6.83,3.05 -6.83,6.83v27.31c0,3.77 3.05,6.83 6.83,6.83h95.57c3.77,0 6.83,-3.05 6.83,-6.83v-27.31C266.24,337.56 263.19,334.51 259.41,334.51zM252.59,361.81h-81.92V348.16h81.92V361.81z"
    id="path_3"
  /><path
    fill="#000000"
    d="M293.55,361.81h-163.84c-3.77,0 -6.83,3.05 -6.83,6.83s3.05,6.83 6.83,6.83h163.84c3.77,0 6.83,-3.05 6.83,-6.83S297.32,361.81 293.55,361.81z"
    id="path_4"
  /><path
    fill="#000000"
    d="M52.61,104.4c-2.67,-2.67 -6.99,-2.67 -9.65,0l-20.48,20.48c-2.67,2.67 -2.67,6.99 0,9.65c1.33,1.33 3.08,2 4.83,2s3.49,-0.67 4.83,-2l20.48,-20.48C55.28,111.39 55.28,107.07 52.61,104.4z"
    id="path_5"
  /><path
    fill="#000000"
    d="M79.92,104.4c-2.67,-2.67 -6.99,-2.67 -9.65,0l-44.37,44.37c-2.67,2.67 -2.67,6.99 0,9.65c1.33,1.33 3.08,2 4.83,2c1.75,0 3.49,-0.67 4.83,-2l44.37,-44.37C82.59,111.39 82.59,107.07 79.92,104.4z"
    id="path_6"
  /></svg>
