<svg id="vector" xmlns="http://www.w3.org/2000/svg" width="64" height="64" viewBox="0 0 100 100"><path fill="#FF000000" d="M19,35c0,-1.1 0.9,-2 2,-2h36c1.1,0 2,0.9 2,2c0,1.1 -0.9,2 -2,2H21C19.9,37 19,36.1 19,35zM21,47h36c1.1,0 2,-0.9 2,-2c0,-1.1 -0.9,-2 -2,-2H21c-1.1,0 -2,0.9 -2,2C19,46.1 19.9,47 21,47zM21,57h24c1.1,0 2,-0.9 2,-2c0,-1.1 -0.9,-2 -2,-2H21c-1.1,0 -2,0.9 -2,2C19,56.1 19.9,57 21,57zM37,63H21c-1.1,0 -2,0.9 -2,2c0,1.1 0.9,2 2,2h16c1.1,0 2,-0.9 2,-2C39,63.9 38.1,63 37,63zM37,73H21c-1.1,0 -2,0.9 -2,2c0,1.1 0.9,2 2,2h16c1.1,0 2,-0.9 2,-2C39,73.9 38.1,73 37,73zM92.4,42.4l-8,8L69,65.8V93c0,1.1 -0.9,2 -2,2H9c-1.1,0 -2,-0.9 -2,-2V7c0,-1.1 0.9,-2 2,-2h42c0.1,0 0.3,0 0.4,0c0.1,0 0.2,0 0.2,0.1c0,0 0.1,0 0.1,0c0.1,0 0.2,0.1 0.3,0.1c0,0 0.1,0 0.1,0c0.1,0.1 0.2,0.2 0.3,0.2l16,16c0.1,0.1 0.2,0.2 0.2,0.3c0,0 0,0 0.1,0.1c0,0.1 0.1,0.2 0.1,0.3c0,0 0,0.1 0,0.1c0,0.1 0.1,0.2 0.1,0.2c0,0.1 0,0.3 0,0.4v17.2l2.6,-2.6l8,-8c0.8,-0.8 2,-0.8 2.8,0l10,10C93.2,40.4 93.2,41.6 92.4,42.4zM53,21h9.2L53,11.8V21zM65,69.8l-6.6,6.6C58,76.8 57.5,77 57,77H47c-1.1,0 -2,-0.9 -2,-2V65c0,-0.5 0.2,-1 0.6,-1.4L65,44.2V25H51c-1.1,0 -2,-0.9 -2,-2V9H11v82h54V69.8zM80.2,49L73,41.8l-24,24V73h7.2L80.2,49zM88.2,41L81,33.8L75.8,39l7.2,7.2L88.2,41z" id="path_0"/></svg>