<svg
  id="vector"
  xmlns="http://www.w3.org/2000/svg"
  width="64"
  height="64"
  viewBox="0 0 512 512"
><path
    fill="#000000"
    d="M503.98,461.76h-26.19V230.35c0,-2.3 -0.99,-4.5 -2.72,-6.02L261.3,36.2c-3.03,-2.66 -7.57,-2.66 -10.59,0L36.93,224.33c-1.73,1.52 -2.72,3.71 -2.72,6.02v231.41H8.02c-4.43,0 -8.02,3.59 -8.02,8.02c0,4.43 3.59,8.02 8.02,8.02h495.97c4.43,0 8.02,-3.59 8.02,-8.02C512,465.35 508.41,461.76 503.98,461.76zM427.56,461.76H264.02v-68.94c0,-0 0,-0 0,-0v-21.5c0,-11.56 4.5,-22.43 12.68,-30.61l13.09,-13.09c5.4,3.19 11.65,4.76 18.12,4.76c11.41,0 23.53,-4.87 33,-14.34c27.01,-27.01 33.92,-75.99 34.2,-78.06c0.34,-2.48 -0.51,-4.98 -2.28,-6.75c-1.77,-1.77 -4.27,-2.61 -6.75,-2.28c-2.07,0.28 -51.05,7.19 -78.06,34.2c-14.85,14.85 -18.38,36.2 -9.58,51.12l-13.1,13.1c-11.2,11.2 -17.38,26.1 -17.38,41.95v2.15l-15.87,-15.87c4.89,-7.61 7.02,-16.91 6.01,-26.93c-1.24,-12.38 -7.16,-24.43 -16.67,-33.93c-32.28,-32.28 -90.28,-39.83 -92.73,-40.13c-2.46,-0.31 -4.91,0.54 -6.66,2.29c-1.75,1.75 -2.59,4.21 -2.29,6.66c0.31,2.45 7.86,60.45 40.13,92.73c9.51,9.51 21.56,15.43 33.93,16.67c1.63,0.16 3.24,0.25 4.83,0.25c8.17,0 15.73,-2.15 22.11,-6.25l27.2,27.21v65.62H84.44V246.63L256,95.65l171.56,150.97V461.76zM330.08,275.99c-3.13,-3.13 -8.21,-3.13 -11.34,0l-28.23,28.23c-2.59,-8.46 0.59,-19.46 8.85,-27.72c16.03,-16.03 42.67,-24.05 57.69,-27.48c-3.44,15.02 -11.45,41.66 -27.48,57.69c-8.26,8.26 -19.26,11.44 -27.72,8.85l28.23,-28.23C333.21,284.19 333.21,279.12 330.08,275.99zM173.37,321.53l35.58,35.58c-3.97,1.72 -8.57,2.38 -13.51,1.88c-8.71,-0.87 -17.3,-5.15 -24.19,-12.05c-20.62,-20.62 -30.02,-55.05 -33.64,-72.52c17.45,3.61 51.84,12.98 72.51,33.65c6.9,6.9 11.18,15.49 12.05,24.19c0.5,4.94 -0.17,9.54 -1.88,13.51l-35.58,-35.58c-3.13,-3.13 -8.21,-3.13 -11.34,0C170.24,313.32 170.24,318.4 173.37,321.53zM461.76,461.76h-18.17v-218.76c0,-2.3 -0.99,-4.5 -2.72,-6.02L261.3,78.96c-3.03,-2.66 -7.56,-2.66 -10.59,0L71.13,236.98c-1.73,1.52 -2.72,3.71 -2.72,6.02v218.76H50.24V233.97L256,52.9l205.76,181.07V461.76z"
    id="path_0"
  /></svg>
