<svg
  id="vector"
  xmlns="http://www.w3.org/2000/svg"
  width="64"
  height="64"
  viewBox="0 0 511.99 511.99"
><path
    fill="#000000"
    d="M181.18,71.18c-8.77,-17.73 -15.68,-31.72 -0.43,-54.61c3.26,-4.91 1.92,-11.52 -2.96,-14.78c-4.84,-3.24 -11.5,-1.94 -14.78,2.96c-22.1,33.11 -10.37,56.83 -0.94,75.88c8.81,17.83 15.19,30.72 0.94,52.12c-3.29,4.91 -1.94,11.52 2.94,14.78c1.81,1.22 3.88,1.79 5.93,1.79c3.43,0 6.8,-1.66 8.85,-4.76C201.83,112.95 190.39,89.78 181.18,71.18z"
    id="path_0"
  /><path
    fill="#000000"
    d="M266.17,71.18c-8.79,-17.73 -15.7,-31.72 -0.45,-54.61c3.26,-4.91 1.92,-11.52 -2.96,-14.78c-4.84,-3.24 -11.52,-1.94 -14.78,2.96c-22.08,33.13 -10.35,56.85 -0.94,75.9c8.81,17.83 15.19,30.72 0.94,52.1c-3.26,4.91 -1.92,11.52 2.96,14.78c1.81,1.22 3.86,1.79 5.91,1.79c3.43,0 6.8,-1.66 8.88,-4.76C286.82,112.95 275.39,89.78 266.17,71.18z"
    id="path_1"
  /><path
    fill="#000000"
    d="M351.14,71.18c-8.79,-17.73 -15.7,-31.72 -0.45,-54.61c3.26,-4.91 1.92,-11.52 -2.96,-14.78c-4.84,-3.24 -11.52,-1.94 -14.78,2.96c-22.08,33.13 -10.35,56.85 -0.94,75.9c8.81,17.83 15.19,30.72 0.94,52.1c-3.26,4.91 -1.92,11.52 2.96,14.78c1.81,1.22 3.86,1.79 5.91,1.79c3.46,0 6.83,-1.66 8.88,-4.76C371.79,112.95 360.36,89.78 351.14,71.18z"
    id="path_2"
  /><path
    fill="#000000"
    d="M437.33,170.65H74.66c-29.42,0 -53.33,23.94 -53.33,53.33v192c0,29.4 23.92,53.33 53.33,53.33h362.67c29.42,0 53.33,-23.94 53.33,-53.33v-192C490.66,194.59 466.75,170.65 437.33,170.65zM469.33,415.99c0,17.64 -14.36,32 -32,32H74.66c-17.64,0 -32,-14.36 -32,-32v-192c0,-17.64 14.36,-32 32,-32h362.67c17.64,0 32,14.36 32,32V415.99z"
    id="path_3"
  /><path
    fill="#000000"
    d="M95.99,213.32c-5.89,0 -10.67,4.78 -10.67,10.67v192c0,5.89 4.78,10.67 10.67,10.67s10.67,-4.78 10.67,-10.67v-192C106.66,218.1 101.88,213.32 95.99,213.32z"
    id="path_4"
  /><path
    fill="#000000"
    d="M159.99,213.32c-5.89,0 -10.67,4.78 -10.67,10.67v192c0,5.89 4.78,10.67 10.67,10.67s10.67,-4.78 10.67,-10.67v-192C170.66,218.1 165.88,213.32 159.99,213.32z"
    id="path_5"
  /><path
    fill="#000000"
    d="M223.99,213.32c-5.89,0 -10.67,4.78 -10.67,10.67v192c0,5.89 4.78,10.67 10.67,10.67s10.67,-4.78 10.67,-10.67v-192C234.66,218.1 229.88,213.32 223.99,213.32z"
    id="path_6"
  /><path
    fill="#000000"
    d="M287.99,213.32c-5.89,0 -10.67,4.78 -10.67,10.67v192c0,5.89 4.78,10.67 10.67,10.67s10.67,-4.78 10.67,-10.67v-192C298.66,218.1 293.88,213.32 287.99,213.32z"
    id="path_7"
  /><path
    fill="#000000"
    d="M351.99,213.32c-5.89,0 -10.67,4.78 -10.67,10.67v192c0,5.89 4.78,10.67 10.67,10.67c5.89,0 10.67,-4.78 10.67,-10.67v-192C362.66,218.1 357.88,213.32 351.99,213.32z"
    id="path_8"
  /><path
    fill="#000000"
    d="M415.99,213.32c-5.89,0 -10.67,4.78 -10.67,10.67v192c0,5.89 4.78,10.67 10.67,10.67c5.89,0 10.67,-4.78 10.67,-10.67v-192C426.66,218.1 421.88,213.32 415.99,213.32z"
    id="path_9"
  /><path
    fill="#000000"
    d="M117.33,447.99c-5.89,0 -10.67,4.78 -10.67,10.67v42.67c0,5.89 4.78,10.67 10.67,10.67s10.67,-4.78 10.67,-10.67v-42.67C127.99,452.77 123.22,447.99 117.33,447.99z"
    id="path_10"
  /><path
    fill="#000000"
    d="M394.66,447.99c-5.89,0 -10.67,4.78 -10.67,10.67v42.67c0,5.89 4.78,10.67 10.67,10.67s10.67,-4.78 10.67,-10.67v-42.67C405.33,452.77 400.55,447.99 394.66,447.99z"
    id="path_11"
  /></svg>
