<svg
  id="vector"
  xmlns="http://www.w3.org/2000/svg"
  width="64"
  height="64"
  viewBox="0 0 64 64"
><path
    fill="#000000"
    d="M15.78,3.51H4C3.735,3.51 3.48,3.615 3.293,3.803C3.105,3.99 3,4.245 3,4.51V59.51C3,59.775 3.105,60.03 3.293,60.217C3.48,60.405 3.735,60.51 4,60.51H15.78C15.911,60.51 16.041,60.484 16.163,60.434C16.284,60.384 16.394,60.31 16.487,60.217C16.58,60.124 16.654,60.014 16.704,59.893C16.754,59.771 16.78,59.641 16.78,59.51V4.51C16.78,4.379 16.754,4.249 16.704,4.127C16.654,4.006 16.58,3.896 16.487,3.803C16.394,3.71 16.284,3.636 16.163,3.586C16.041,3.536 15.911,3.51 15.78,3.51V3.51ZM14.78,58.51H5V5.51H14.78V58.51Z"
    id="path_0"
  /><path
    fill="#000000"
    d="M7.93,44.78H11.86C12.125,44.78 12.38,44.674 12.567,44.487C12.755,44.299 12.86,44.045 12.86,43.78V8.11C12.86,7.845 12.755,7.59 12.567,7.403C12.38,7.215 12.125,7.11 11.86,7.11H7.93C7.665,7.11 7.41,7.215 7.223,7.403C7.035,7.59 6.93,7.845 6.93,8.11V43.78C6.93,44.045 7.035,44.299 7.223,44.487C7.41,44.674 7.665,44.78 7.93,44.78ZM8.93,9.11H10.86V42.78H8.93V9.11Z"
    id="path_1"
  /><path
    fill="#000000"
    d="M7.93,54.6H11.86C12.125,54.6 12.38,54.494 12.567,54.307C12.755,54.119 12.86,53.865 12.86,53.6V49.35C12.86,49.085 12.755,48.83 12.567,48.643C12.38,48.455 12.125,48.35 11.86,48.35H7.93C7.665,48.35 7.41,48.455 7.223,48.643C7.035,48.83 6.93,49.085 6.93,49.35V53.6C6.93,53.865 7.035,54.119 7.223,54.307C7.41,54.494 7.665,54.6 7.93,54.6ZM8.93,50.35H10.86V52.6H8.93V50.35Z"
    id="path_2"
  /><path
    fill="#000000"
    d="M23.64,44.78H27.57C27.835,44.78 28.09,44.674 28.277,44.487C28.465,44.299 28.57,44.045 28.57,43.78V8.11C28.57,7.845 28.465,7.59 28.277,7.403C28.09,7.215 27.835,7.11 27.57,7.11H23.64C23.375,7.11 23.12,7.215 22.933,7.403C22.745,7.59 22.64,7.845 22.64,8.11V43.78C22.64,44.045 22.745,44.299 22.933,44.487C23.12,44.674 23.375,44.78 23.64,44.78ZM24.64,9.11H26.57V42.78H24.64V9.11Z"
    id="path_3"
  /><path
    fill="#000000"
    d="M23.64,54.6H27.57C27.835,54.6 28.09,54.494 28.277,54.307C28.465,54.119 28.57,53.865 28.57,53.6V49.35C28.57,49.085 28.465,48.83 28.277,48.643C28.09,48.455 27.835,48.35 27.57,48.35H23.64C23.375,48.35 23.12,48.455 22.933,48.643C22.745,48.83 22.64,49.085 22.64,49.35V53.6C22.64,53.865 22.745,54.119 22.933,54.307C23.12,54.494 23.375,54.6 23.64,54.6ZM24.64,50.35H26.57V52.6H24.64V50.35Z"
    id="path_4"
  /><path
    fill="#000000"
    d="M61,56.21L44.65,3.7C44.611,3.574 44.548,3.457 44.464,3.356C44.38,3.255 44.276,3.171 44.16,3.11C44.047,3.042 43.921,2.998 43.791,2.979C43.66,2.96 43.528,2.967 43.4,3L32.49,6.43V4.51C32.49,4.245 32.385,3.99 32.197,3.803C32.009,3.615 31.755,3.51 31.49,3.51H19.71C19.445,3.51 19.19,3.615 19.003,3.803C18.815,3.99 18.71,4.245 18.71,4.51V59.51C18.71,59.775 18.815,60.029 19.003,60.217C19.19,60.405 19.445,60.51 19.71,60.51H31.49C31.755,60.51 32.009,60.405 32.197,60.217C32.385,60.029 32.49,59.775 32.49,59.51V11L47.79,60.3C47.829,60.426 47.892,60.542 47.976,60.644C48.06,60.745 48.164,60.829 48.28,60.89C48.425,60.964 48.587,61.002 48.75,61C48.833,61.011 48.917,61.011 49,61L60.3,57.47C60.55,57.389 60.759,57.213 60.88,56.98C60.951,56.866 60.997,56.739 61.018,56.607C61.039,56.475 61.033,56.34 61,56.21V56.21ZM30.49,58.49H20.71V5.49H30.49V58.49ZM49.41,58.75L33.7,8.15L43,5.25L58.71,55.85L49.41,58.75Z"
    id="path_5"
  /><path
    fill="#000000"
    d="M41.48,7.71C41.246,7.587 40.973,7.562 40.72,7.64L37,8.81C36.747,8.888 36.535,9.064 36.411,9.298C36.288,9.533 36.262,9.807 36.34,10.06L46.89,44.13C46.966,44.382 47.139,44.594 47.37,44.72C47.514,44.798 47.676,44.839 47.84,44.84C47.942,44.839 48.043,44.822 48.14,44.79L51.89,43.63C52.017,43.591 52.134,43.528 52.236,43.443C52.338,43.359 52.422,43.255 52.483,43.138C52.544,43.021 52.582,42.892 52.594,42.761C52.605,42.629 52.59,42.496 52.55,42.37L42,8.3C41.909,8.044 41.723,7.833 41.48,7.71V7.71ZM48.48,42.58L38.48,10.42L40.32,9.85L50.34,42L48.48,42.58Z"
    id="path_6"
  /><path
    fill="#000000"
    d="M48.6,48.68C48.482,48.919 48.458,49.193 48.53,49.45L49.8,53.51C49.839,53.636 49.902,53.752 49.986,53.854C50.07,53.955 50.174,54.039 50.29,54.1C50.526,54.217 50.797,54.242 51.05,54.17L54.8,53C54.926,52.961 55.043,52.898 55.144,52.814C55.245,52.73 55.329,52.626 55.39,52.51C55.513,52.276 55.538,52.002 55.46,51.75L54.2,47.69C54.164,47.561 54.103,47.44 54.02,47.335C53.937,47.23 53.834,47.142 53.716,47.078C53.599,47.014 53.469,46.973 53.336,46.96C53.203,46.947 53.068,46.96 52.94,47L49.19,48.16C48.934,48.251 48.723,48.437 48.6,48.68V48.68ZM52.6,49.24L53.27,51.39L51.41,52L50.74,49.85L52.6,49.24Z"
    id="path_7"
  /></svg>
