<svg
  id="vector"
  xmlns="http://www.w3.org/2000/svg"
  width="64"
  height="64"
  viewBox="0 0 100 100"
><path
    fill="#000000"
    d="m93.55,66a1.45,1.45 0,0 0,-1.45 1.45v5.81h-84.2v-52.26h11.62a1.45,1.45 0,1 0,0 -2.9h-13.07a1.45,1.45 0,0 0,-1.45 1.42v55.16a1.45,1.45 0,0 0,1.45 1.45h5.81v4.35a1.45,1.45 0,0 0,1.45 1.45h11.61a1.45,1.45 0,0 0,1.45 -1.45v-4.35h46.46v4.35a1.45,1.45 0,0 0,1.45 1.45h11.61a1.45,1.45 0,0 0,1.45 -1.45v-4.35h5.81a1.45,1.45 0,0 0,1.45 -1.45v-7.26a1.45,1.45 0,0 0,-1.45 -1.42zM23.87,79h-8.71v-2.9h8.71zM84.87,79h-8.74v-2.9h8.71v2.9z"
    id="path_0"
  /><path
    fill="#000000"
    d="m93.55,18.06h-61a1.45,1.45 0,0 0,0 2.9h59.55v42.1a1.45,1.45 0,0 0,2.9 0v-43.54a1.45,1.45 0,0 0,-1.45 -1.46z"
    id="path_1"
  /><path
    fill="#000000"
    d="m25.32,21h2.9a1.45,1.45 0,0 0,0 -2.9h-2.9a1.45,1.45 0,1 0,0 2.9z"
    id="path_2"
  /><path
    fill="#000000"
    d="m10.81,25.32v43.55a1.46,1.46 0,0 0,1.45 1.45h61a1.46,1.46 0,0 0,1.45 -1.45v-43.55a1.46,1.46 0,0 0,-1.45 -1.45h-61a1.46,1.46 0,0 0,-1.45 1.45zM13.71,26.77h58.06v40.65h-58.06z"
    id="path_3"
  /><path
    fill="#000000"
    d="m77.58,32.58h11.61a1.46,1.46 0,0 0,1.45 -1.45v-5.81a1.46,1.46 0,0 0,-1.45 -1.45h-11.61a1.46,1.46 0,0 0,-1.45 1.45v5.81a1.46,1.46 0,0 0,1.45 1.45zM79,26.77h8.71v2.9h-8.71z"
    id="path_4"
  /><path
    fill="#000000"
    d="m77.58,38.39h11.61a1.45,1.45 0,0 0,0 -2.9h-11.61a1.45,1.45 0,0 0,0 2.9z"
    id="path_5"
  /><path
    fill="#000000"
    d="m77.58,41.29a1.45,1.45 0,1 0,1.42 1.45,1.44 1.44,0 0,0 -1.47,-1.45z"
    id="path_6"
  /><path
    fill="#000000"
    d="m89.19,41.29h-7.25a1.45,1.45 0,0 0,0 2.9h7.26a1.45,1.45 0,0 0,-0.01 -2.9z"
    id="path_7"
  /><path
    fill="#000000"
    d="m67.42,29.68h-5.81a1.46,1.46 0,0 0,-1.45 1.45v31.93a1.46,1.46 0,0 0,1.45 1.45h5.81a1.46,1.46 0,0 0,1.45 -1.45v-31.93a1.46,1.46 0,0 0,-1.45 -1.45zM66,61.61h-2.9v-29h2.9z"
    id="path_8"
  /></svg>
