<svg
  id="vector"
  xmlns="http://www.w3.org/2000/svg"
  width="64"
  height="64"
  viewBox="0 0 512 512"
><path
    fill="#000000"
    d="M486.63,191.23h-10.17v-37.81c0,-22.35 -18.18,-40.53 -40.53,-40.53H289.03c-13.62,0 -25.68,6.76 -33.03,17.09c-7.35,-10.33 -19.41,-17.09 -33.03,-17.09h-92.28c-4.14,0 -7.5,3.36 -7.5,7.5c0,4.14 3.36,7.5 7.5,7.5h92.28c14.08,0 25.53,11.45 25.53,25.53v75.01c-0.16,-0.15 -0.32,-0.29 -0.48,-0.44c-8.89,-8.29 -20.94,-13.07 -33.1,-13.07H89.99C89.33,204.86 82.46,196 72.99,192.64c-2.67,-0.95 -5.49,-1.41 -8.32,-1.41H50.55v-37.81c0,-14.08 11.45,-25.53 25.53,-25.53h24.61c4.14,0 7.5,-3.36 7.5,-7.5c0,-4.14 -3.36,-7.5 -7.5,-7.5H76.08c-22.35,0 -40.53,18.18 -40.53,40.53v37.81H25.38C11.38,191.23 0,202.62 0,216.6v78.31c0,29.14 23.71,52.84 52.84,52.84h3.77c0,0 -8.21,22.09 -8.22,22.1c-5.18,13.93 5.48,29.24 20.33,29.24h12.07c6.75,0 13.22,-3.22 17.29,-8.6l32.33,-42.74h251.18l32.33,42.74c4.07,5.39 10.54,8.6 17.29,8.6c0,0 12.06,0 12.06,0c14.86,0 25.5,-15.31 20.33,-29.24l-8.22,-22.1h3.77c29.14,0 52.84,-23.71 52.84,-52.84v-78.31C512,202.62 500.62,191.23 486.63,191.23zM263.5,153.43c0,-14.08 11.45,-25.53 25.53,-25.53h146.89c14.08,0 25.53,11.45 25.53,25.53v37.81c0,0 -14.12,0 -14.12,0c-9.97,0 -19.54,6.4 -23.41,15.58c-1.08,2.57 -1.73,5.33 -1.91,8.12c0,0 -124.92,0 -124.93,0c-12.35,0 -24.66,4.97 -33.58,13.51V153.43zM90.04,229.93h124.87c18.52,0 33.58,15.07 33.58,33.58v10.66H90.04V229.93zM86.12,381.45c-1.26,1.66 -3.25,2.65 -5.33,2.65c0,0 -12.02,0 -12.07,0c-4.59,0 -7.86,-4.71 -6.26,-9.01l10.16,-27.33h38.99L86.12,381.45zM443.28,384.11h-12.06c-2.08,0 -4.07,-0.99 -5.33,-2.65l-25.49,-33.69h38.99c0,0 10.13,27.24 10.16,27.33C451.15,379.4 447.85,384.11 443.28,384.11zM459.16,332.76H52.84C31.98,332.76 15,315.78 15,294.92v-78.31c0,-5.72 4.65,-10.38 10.38,-10.38h39.29c5.72,0 10.38,4.65 10.38,10.38v65.07c0,4.14 3.36,7.5 7.5,7.5H358.02c4.14,0 7.5,-3.36 7.5,-7.5c0,-4.14 -3.36,-7.5 -7.5,-7.5H263.5v-10.66c0,-18.52 15.06,-33.58 33.58,-33.58h124.87v44.25H388.02c-4.14,0 -7.5,3.36 -7.5,7.5c0,4.14 3.36,7.5 7.5,7.5h41.44c4.14,0 7.5,-3.36 7.5,-7.5v-65.07c0,-5.72 4.65,-10.38 10.38,-10.38h39.29c5.72,0 10.38,4.65 10.38,10.38v78.31H497C497,315.78 480.02,332.76 459.16,332.76z"
    id="path_0"
  /></svg>
