<svg
  id="vector"
  xmlns="http://www.w3.org/2000/svg"
  width="64"
  height="64"
  viewBox="0 0 480.01 480.01"
><path
    fill="#000000"
    d="M408,433.48V416c0,-3.45 -2.2,-6.5 -5.47,-7.58l-90.53,-30.18V366.52c9.29,-3.31 16,-12.11 16,-22.53c0,-6.17 -2.41,-11.74 -6.24,-16c3.84,-4.26 6.24,-9.83 6.24,-16c0,-6.17 -2.41,-11.74 -6.24,-16c3.84,-4.26 6.24,-9.83 6.24,-16c0,-13.07 -10.52,-23.7 -23.54,-23.95c3.98,-35.96 34.52,-64.04 71.54,-64.04c4.42,0 8,-3.58 8,-8v-40c0,-79.4 -64.6,-144 -144,-144s-144,64.6 -144,144v40c0,4.42 3.58,8 8,8c37.02,0 67.56,28.08 71.54,64.05c-13.02,0.26 -23.54,10.88 -23.54,23.95c0,6.17 2.41,11.74 6.24,16c-3.84,4.26 -6.24,9.83 -6.24,16c0,6.17 2.41,11.74 6.24,16c-3.84,4.26 -6.24,9.83 -6.24,16c0,10.42 6.71,19.22 16,22.53v11.71l-90.53,30.18c-3.27,1.09 -5.47,4.14 -5.47,7.58v17.47c-9.29,3.31 -16,12.11 -16,22.53c0,13.23 10.77,24 24,24s24,-10.77 24,-24c0,-10.42 -6.71,-19.22 -16,-22.53V421.76l90.53,-30.18c3.27,-1.09 5.47,-4.14 5.47,-7.58v-16h16v34.23l-42.53,14.18c-3.27,1.1 -5.47,4.14 -5.47,7.59v9.47c-9.29,3.31 -16,12.11 -16,22.53c0,13.23 10.77,24 24,24s24,-10.77 24,-24c0,-10.42 -6.71,-19.22 -16,-22.53v-3.71l42.53,-14.18c3.27,-1.09 5.47,-4.14 5.47,-7.58v-40h16v65.47c-9.29,3.31 -16,12.11 -16,22.53c0,13.23 10.77,24 24,24s24,-10.77 24,-24c0,-10.42 -6.71,-19.22 -16,-22.53V368h16v40c0,3.45 2.2,6.5 5.47,7.58l42.53,14.18v3.71c-9.29,3.31 -16,12.11 -16,22.53c0,13.23 10.77,24 24,24s24,-10.77 24,-24c0,-10.42 -6.71,-19.22 -16,-22.53V424c0,-3.45 -2.2,-6.5 -5.47,-7.58l-42.53,-14.18V368h16v16c0,3.45 2.2,6.5 5.47,7.58l90.53,30.18v11.71c-9.29,3.31 -16,12.11 -16,22.53c0,13.23 10.77,24 24,24s24,-10.77 24,-24C424,445.59 417.29,436.79 408,433.48zM80,464c-4.42,0 -8,-3.58 -8,-8c0,-4.42 3.58,-8 8,-8s8,3.58 8,8C88,460.42 84.42,464 80,464zM160,464c-4.42,0 -8,-3.58 -8,-8c0,-4.42 3.58,-8 8,-8s8,3.58 8,8C168,460.42 164.42,464 160,464zM320,448c4.42,0 8,3.58 8,8c0,4.42 -3.58,8 -8,8c-4.42,0 -8,-3.58 -8,-8C312,451.58 315.59,448 320,448zM112,176.36V144c0,-70.58 57.42,-128 128,-128s128,57.42 128,128v32.36c-42.15,3.82 -75.8,37.49 -79.62,79.64h-16.38v-92.25l28.02,-23.35c12.7,-10.58 19.98,-26.14 19.98,-42.66c0,-22.62 -18.32,-41.74 -40,-41.74c-7.1,0 -13.91,1.94 -20.03,5.57c-12.32,-7.14 -27.62,-7.14 -39.94,0C213.92,57.94 207.11,56 200,56c-21.68,0 -40,19.12 -40,41.74c0,16.52 7.28,32.07 19.98,42.66l28.02,23.35V256H191.62C187.8,213.85 154.16,180.18 112,176.36zM221.13,153.85l-30.9,-25.75c-9.05,-7.53 -14.23,-18.59 -14.23,-30.35c0,-13.71 11.22,-25.74 24,-25.74c2.5,0 4.93,0.4 7.27,1.18c-0.14,0.21 -0.24,0.43 -0.38,0.64c-0.88,1.3 -1.68,2.62 -2.4,4.01c-0.13,0.25 -0.28,0.48 -0.41,0.73c-0.8,1.62 -1.48,3.31 -2.05,5.03c-0.14,0.42 -0.24,0.84 -0.37,1.26c-0.4,1.36 -0.73,2.74 -0.98,4.14c-0.09,0.5 -0.18,1.01 -0.26,1.52c-0.24,1.82 -0.42,3.64 -0.42,5.5c0,12.02 5.46,23.33 14.97,31.02c1.47,1.18 3.25,1.78 5.03,1.78s3.56,-0.59 5.02,-1.78c9.51,-7.69 14.98,-18.99 14.98,-31.02c0,-1.86 -0.18,-3.68 -0.42,-5.48c-0.07,-0.52 -0.17,-1.02 -0.26,-1.54c-0.25,-1.39 -0.58,-2.75 -0.98,-4.1c-0.13,-0.43 -0.23,-0.87 -0.38,-1.3c-0.57,-1.71 -1.24,-3.38 -2.04,-5c-0.14,-0.28 -0.31,-0.54 -0.46,-0.82c-0.7,-1.34 -1.48,-2.63 -2.33,-3.89c-0.15,-0.22 -0.26,-0.47 -0.42,-0.7c4.69,-1.54 9.86,-1.55 14.54,0.01c-0.14,0.21 -0.24,0.43 -0.38,0.64c-0.88,1.3 -1.68,2.62 -2.4,4.01c-0.13,0.25 -0.28,0.48 -0.41,0.73c-0.8,1.62 -1.48,3.31 -2.05,5.03c-0.14,0.42 -0.24,0.84 -0.37,1.26c-0.4,1.36 -0.73,2.74 -0.98,4.14c-0.09,0.5 -0.18,1.01 -0.26,1.52c-0.23,1.8 -0.41,3.62 -0.41,5.48c0,12.02 5.46,23.33 14.97,31.02c1.47,1.18 3.25,1.78 5.03,1.78c1.78,0 3.56,-0.59 5.02,-1.78c9.51,-7.69 14.98,-18.99 14.98,-31.02c0,-1.86 -0.18,-3.68 -0.42,-5.48c-0.07,-0.52 -0.17,-1.02 -0.26,-1.54c-0.25,-1.39 -0.58,-2.75 -0.98,-4.1c-0.13,-0.43 -0.23,-0.87 -0.38,-1.3c-0.57,-1.71 -1.24,-3.38 -2.04,-5c-0.14,-0.28 -0.31,-0.54 -0.46,-0.82c-0.7,-1.34 -1.48,-2.63 -2.33,-3.89c-0.15,-0.22 -0.26,-0.47 -0.42,-0.7c2.35,-0.78 4.78,-1.18 7.28,-1.18c12.78,0 24,12.03 24,25.74c0,11.77 -5.18,22.83 -14.22,30.36l-30.9,25.75c-1.82,1.52 -2.88,3.77 -2.88,6.14v96h-32v-96C224,157.62 222.95,155.38 221.13,153.85zM216,96c0,-1.59 0.22,-3.15 0.54,-4.69c0.08,-0.37 0.16,-0.74 0.25,-1.1c0.38,-1.5 0.87,-2.97 1.54,-4.37c0.06,-0.11 0.13,-0.22 0.18,-0.33c0.42,-0.82 0.97,-1.57 1.48,-2.34c0.5,0.77 1.06,1.51 1.47,2.33c0.06,0.12 0.14,0.22 0.2,0.34c0.67,1.39 1.16,2.86 1.54,4.36c0.1,0.37 0.18,0.74 0.26,1.11c0.31,1.54 0.54,3.1 0.54,4.69s-0.22,3.15 -0.54,4.69c-0.08,0.38 -0.16,0.74 -0.26,1.11c-0.38,1.5 -0.87,2.97 -1.54,4.36c-0.06,0.12 -0.14,0.22 -0.19,0.34c-0.41,0.82 -0.97,1.56 -1.47,2.33c-0.5,-0.78 -1.06,-1.52 -1.48,-2.34c-0.06,-0.11 -0.14,-0.22 -0.18,-0.33c-0.67,-1.39 -1.16,-2.86 -1.54,-4.37c-0.1,-0.37 -0.18,-0.74 -0.26,-1.1C216.23,99.15 216,97.59 216,96zM256,96c0,-1.59 0.22,-3.15 0.54,-4.69c0.08,-0.37 0.16,-0.74 0.25,-1.1c0.38,-1.5 0.87,-2.97 1.54,-4.37c0.06,-0.11 0.13,-0.22 0.18,-0.33c0.42,-0.82 0.97,-1.57 1.48,-2.34c0.5,0.77 1.06,1.51 1.47,2.33c0.06,0.12 0.14,0.22 0.2,0.34c0.67,1.39 1.16,2.86 1.54,4.36c0.1,0.37 0.18,0.74 0.26,1.11c0.31,1.54 0.54,3.1 0.54,4.69s-0.22,3.15 -0.54,4.69c-0.08,0.38 -0.16,0.74 -0.26,1.11c-0.38,1.5 -0.87,2.97 -1.54,4.36c-0.06,0.12 -0.14,0.22 -0.19,0.34c-0.41,0.82 -0.97,1.56 -1.47,2.33c-0.5,-0.78 -1.06,-1.52 -1.48,-2.34c-0.06,-0.11 -0.14,-0.22 -0.18,-0.33c-0.67,-1.39 -1.16,-2.86 -1.54,-4.37c-0.1,-0.37 -0.18,-0.74 -0.26,-1.1C256.23,99.15 256,97.59 256,96zM176,272h128c4.42,0 8,3.58 8,8c0,4.42 -3.58,8 -8,8h-128c-4.42,0 -8,-3.58 -8,-8C168,275.58 171.59,272 176,272zM176,304h128c4.42,0 8,3.58 8,8c0,4.42 -3.58,8 -8,8h-128c-4.42,0 -8,-3.58 -8,-8C168,307.58 171.59,304 176,304zM240,464c-4.42,0 -8,-3.58 -8,-8c0,-4.42 3.58,-8 8,-8s8,3.58 8,8C248,460.42 244.42,464 240,464zM304,352h-128c-4.42,0 -8,-3.58 -8,-8c0,-4.42 3.58,-8 8,-8h128c4.42,0 8,3.58 8,8C312,348.42 308.42,352 304,352zM400,464c-4.42,0 -8,-3.58 -8,-8c0,-4.42 3.58,-8 8,-8c4.42,0 8,3.58 8,8C408,460.42 404.42,464 400,464z"
    id="path_0"
  /></svg>
