<svg
  id="vector"
  xmlns="http://www.w3.org/2000/svg"
  width="64"
  height="64"
  viewBox="0 0 512.5 512.5"
><path
    fill="#000000"
    d="m505,224.69c-4.14,0 -7.5,3.36 -7.5,7.5v48.13c0,9.39 15,9.81 15,0v-48.13c0,-4.14 -3.36,-7.5 -7.5,-7.5z"
    id="path_0"
  /><path
    fill="#000000"
    d="m473.94,175.76c-4.14,0 -7.5,3.36 -7.5,7.5v145.97c0,9.39 15,9.81 15,0v-145.97c0,-4.14 -3.36,-7.5 -7.5,-7.5z"
    id="path_1"
  /><path
    fill="#000000"
    d="m442.88,192.1c-4.14,0 -7.5,3.36 -7.5,7.5v113.3c0,9.39 15,9.81 15,0v-113.3c0,-4.14 -3.36,-7.5 -7.5,-7.5z"
    id="path_2"
  /><path
    fill="#000000"
    d="m411.81,141.74c-4.14,0 -7.5,3.36 -7.5,7.5v214.02c0,9.39 15,9.81 15,0v-214.02c0,-4.14 -3.36,-7.5 -7.5,-7.5z"
    id="path_3"
  /><path
    fill="#000000"
    d="m7.5,224.69c-4.14,0 -7.5,3.36 -7.5,7.5v48.13c0,9.39 15,9.81 15,0v-48.13c0,-4.14 -3.36,-7.5 -7.5,-7.5z"
    id="path_4"
  /><path
    fill="#000000"
    d="m38.56,175.76c-4.14,0 -7.5,3.36 -7.5,7.5v145.97c0,9.39 15,9.81 15,0v-145.97c0,-4.14 -3.36,-7.5 -7.5,-7.5z"
    id="path_5"
  /><path
    fill="#000000"
    d="m69.63,192.1c-4.14,0 -7.5,3.36 -7.5,7.5v113.3c0,9.39 15,9.81 15,0v-113.3c0,-4.14 -3.36,-7.5 -7.5,-7.5z"
    id="path_6"
  /><path
    fill="#000000"
    d="m100.69,141.74c-4.14,0 -7.5,3.36 -7.5,7.5v214.02c0,9.39 15,9.81 15,0v-214.02c0,-4.14 -3.36,-7.5 -7.5,-7.5z"
    id="path_7"
  /><path
    fill="#000000"
    d="m388.03,201.36c0.14,-0.56 0.22,-1.15 0.22,-1.76v-80.71c0,-9.39 -15,-9.81 -15,0v55.7c-4.8,-6.84 -10.17,-13.24 -16.06,-19.12v-102.21c0,-9.39 -15,-9.81 -15,0v89.17c-5.1,-3.85 -10.47,-7.36 -16.06,-10.51v-58.17c0,-9.39 -15,-9.81 -15,0v50.86c-5.21,-2.17 -10.57,-4.04 -16.06,-5.59v-87.77c0,-9.39 -15,-9.81 -15,0v84.43c-5.43,-0.91 -10.95,-1.51 -16.56,-1.78v-106.14c0,-9.39 -15,-9.81 -15,0v106.19c-5.44,0.3 -10.8,0.91 -16.06,1.81v-84.51c0,-9.39 -15,-9.81 -15,0v87.91c-5.5,1.57 -10.86,3.46 -16.06,5.65v-51.06c0,-9.39 -15,-9.81 -15,0v58.45c-5.6,3.18 -10.97,6.73 -16.06,10.61v-89.56c0,-9.39 -15,-9.81 -15,0v102.72c-5.9,5.95 -11.28,12.42 -16.06,19.33v-56.42c0,-9.39 -15,-9.81 -15,0v82.86c0,0.38 0.04,0.76 0.09,1.13 -6.69,16.49 -10.38,34.51 -10.38,53.37 0,18.42 3.46,36.31 10.28,53.23v84.14c0,9.39 15,9.81 15,0v-82.62c0,-18.34 -10.28,-25.75 -10.28,-54.75 0,-70.32 57.21,-127.53 127.53,-127.53s127.53,57.21 127.53,127.53 -57.21,127.53 -127.53,127.53c-32.76,0 -63.89,-12.4 -87.67,-34.91 -4.72,-4.47 -13.52,-1.09 -13.52,5.45v104.93c0,9.39 15,9.81 15,0v-89.47c5.13,3.91 10.5,7.45 16.06,10.6v58.38c0,9.39 15,9.81 15,0v-51.02c5.23,2.19 10.6,4.07 16.06,5.62v87.89c0,9.39 15,9.81 15,0v-84.49c5.29,0.9 10.65,1.5 16.06,1.8v106.19c0,9.39 15,9.81 15,0v-106.14c5.61,-0.27 11.14,-0.88 16.56,-1.78v84.43c0,9.39 15,9.81 15,0v-87.77c5.49,-1.55 10.86,-3.42 16.06,-5.59v50.86c0,9.39 15,9.81 15,0v-58.17c5.6,-3.15 10.96,-6.66 16.06,-10.51v89.17c0,9.39 15,9.81 15,0v-102.21c5.89,-5.89 11.27,-12.29 16.06,-19.12v55.7c0,9.39 15,9.81 15,0v-80.71c0,-0.61 -0.08,-1.19 -0.22,-1.76 7.08,-16.9 11,-35.45 11,-54.89s-3.92,-37.99 -11,-54.89z"
    id="path_8"
  /><path
    fill="#000000"
    d="m283.83,197.65c8.84,-3.16 4.2,-17.43 -5.05,-14.13l-53.79,19.21c-2.96,1.05 -4.98,3.94 -4.98,7.06v71.79c-3.79,-1.96 -8.08,-3.07 -12.63,-3.07 -15.24,0 -27.63,12.4 -27.63,27.63s12.4,27.63 27.63,27.63 27.63,-12.4 27.63,-27.63v-65.18l65.53,-23.4v35.26c-3.79,-1.96 -8.08,-3.07 -12.63,-3.07 -15.24,0 -27.63,12.4 -27.63,27.63s12.4,27.63 27.63,27.63 27.63,-12.4 27.63,-27.63v-96.35c0,-9.39 -15,-9.81 -15,0v20.6l-65.53,23.4v-9.96zM287.92,290.02c-6.97,0 -12.63,-5.67 -12.63,-12.63s5.67,-12.63 12.63,-12.63 12.63,5.67 12.63,12.63 -5.67,12.63 -12.63,12.63zM207.39,318.78c-6.97,0 -12.63,-5.67 -12.63,-12.63s5.67,-12.63 12.63,-12.63 12.63,5.67 12.63,12.63 -5.67,12.63 -12.63,12.63z"
    id="path_9"
  /></svg>
