<svg
  id="vector"
  xmlns="http://www.w3.org/2000/svg"
  width="64"
  height="64"
  viewBox="0 0 74 74"
><path
    fill="#000000"
    d="m64.5,72h-55a7.508,7.508 0,0 1,-7.5 -7.5v-55a7.508,7.508 0,0 1,7.5 -7.5h55a7.508,7.508 0,0 1,7.5 7.5v55a7.508,7.508 0,0 1,-7.5 7.5zM9.5,4a5.506,5.506 0,0 0,-5.5 5.5v55a5.506,5.506 0,0 0,5.5 5.5h55a5.506,5.506 0,0 0,5.5 -5.5v-55a5.506,5.506 0,0 0,-5.5 -5.5z"
    id="path_0"
  /><path
    fill="#000000"
    d="m37,63.083a26.083,26.083 0,1 1,26.083 -26.083,26.113 26.113,0 0,1 -26.083,26.083zM37,12.917a24.083,24.083 0,1 0,24.083 24.083,24.11 24.11,0 0,0 -24.083,-24.083z"
    id="path_1"
  /><path
    fill="#000000"
    d="m26.623,41.285a4.285,4.285 0,1 1,4.285 -4.285,4.29 4.29,0 0,1 -4.285,4.285zM26.623,34.715a2.285,2.285 0,1 0,2.285 2.285,2.288 2.288,0 0,0 -2.285,-2.285z"
    id="path_2"
  /><path
    fill="#000000"
    d="m47.377,41.285a4.285,4.285 0,1 1,4.285 -4.285,4.29 4.29,0 0,1 -4.285,4.285zM47.377,34.715a2.285,2.285 0,1 0,2.285 2.285,2.288 2.288,0 0,0 -2.285,-2.285z"
    id="path_3"
  /><path
    fill="#000000"
    d="m38.577,17.551h-3.154a2.657,2.657 0,0 1,-2.648 -2.66v-2.759a1,1 0,0 1,0.868 -0.991,25.408 25.408,0 0,1 6.714,0 1,1 0,0 1,0.868 0.991v2.759a2.657,2.657 0,0 1,-2.648 2.66zM34.777,13.024v1.867a0.655,0.655 0,0 0,0.648 0.66h3.154a0.655,0.655 0,0 0,0.648 -0.66v-1.867a23.3,23.3 0,0 0,-4.452 0z"
    id="path_4"
  /><path
    fill="#000000"
    d="m37,63.082a25.316,25.316 0,0 1,-3.357 -0.223,1 1,0 0,1 -0.868,-0.991v-2.759a2.657,2.657 0,0 1,2.648 -2.66h3.154a2.657,2.657 0,0 1,2.648 2.66v2.759a1,1 0,0 1,-0.868 0.991,25.316 25.316,0 0,1 -3.357,0.223zM34.775,60.976a23.3,23.3 0,0 0,4.45 0v-1.867a0.655,0.655 0,0 0,-0.648 -0.66h-3.154a0.655,0.655 0,0 0,-0.648 0.66z"
    id="path_5"
  /></svg>
