<svg
  id="vector"
  xmlns="http://www.w3.org/2000/svg"
  width="64"
  height="64"
  viewBox="0 0 512 511"
><path
    fill="#000000"
    d="m491.05,206.97h-0.46c-31.66,-33.11 -55.3,-64.59 -68.45,-91.15 -4.21,-8.5 -12.41,-14.46 -21.7,-16.1v-5.06c0,-12.79 -8.24,-23.69 -19.68,-27.67l-7.04,-47.79c-1.57,-10.66 -10.88,-18.7 -21.66,-18.7h-21.73c-10.78,0 -20.09,8.04 -21.66,18.7l-0.28,1.91h-63.52c-37.91,0 -72.24,24.9 -87.45,63.44 -15.96,40.43 -51.07,33.2 -53.55,33.93 -4.71,-13.45 -17.53,-23.13 -32.57,-23.13h-2.69v-34.99c0,-14.03 -11.41,-25.44 -25.44,-25.44h-17.74c-14.02,0 -25.43,11.41 -25.43,25.44v12.59c0,4.14 3.36,7.5 7.5,7.5s7.5,-3.36 7.5,-7.5v-12.59c0,-5.75 4.68,-10.44 10.43,-10.44h17.74c5.75,0 10.44,4.68 10.44,10.44v151.04c0,20.93 -11.34,40.29 -29.58,50.53 -4.04,2.27 -9.03,-0.64 -9.03,-5.29v-153.7c0,-4.14 -3.36,-7.5 -7.5,-7.5 -4.14,0 -7.5,3.36 -7.5,7.5v153.7c0,16.08 17.31,26.26 31.38,18.37 22.97,-12.9 37.23,-37.27 37.23,-63.61v-25.07h2.7c14.32,0 26.63,-8.77 31.84,-21.21 1.66,-0.5 69.48,7.99 97.68,-63.44 8.13,-20.61 25.43,-33.93 44.06,-33.93h54.79c-20.46,8.85 -17.51,31.25 -17.7,31.96 -9.29,1.64 -17.48,7.6 -21.7,16.1 -13.16,26.56 -36.8,58.04 -68.45,91.15h-0.46c-11.55,0 -20.95,9.4 -20.95,20.95 0,20.21 16.44,36.65 36.65,36.65h0.81l50.52,191.67c3.13,11.88 13.89,20.17 26.17,20.17h1.05c3.16,6.01 5.87,11.81 8.08,17.27 3.87,9.57 13.7,16.01 24.47,16.01h46.09c10.77,0 20.6,-6.43 24.47,-16.01 2.21,-5.46 4.92,-11.26 8.07,-17.27 0.1,-0.04 21.67,0.89 27.23,-20.17l50.52,-191.67h0.81c20.21,0 36.65,-16.44 36.65,-36.65 0,-11.55 -9.4,-20.95 -20.95,-20.95zM330.34,15.5h21.73c3.39,0 6.32,2.53 6.82,5.88l6.47,43.98h-48.31l6.47,-43.98c0.5,-3.36 3.43,-5.89 6.82,-5.89zM90.8,151.84c0,10.75 -8.75,19.5 -19.5,19.5h-2.7v-60.98h2.7c10.75,0 19.5,8.75 19.5,19.5zM186.86,96.18c-12.94,32.77 -41.79,53.95 -73.5,53.95h-7.57v-16.64h7.57c24.83,0 47.6,-17.04 58.02,-43.42 12.93,-32.77 41.78,-53.95 73.49,-53.95h61.32l-2.45,16.65h-58.86c-24.83,0 -47.6,17.04 -58.01,43.42zM311.26,80.36h59.88c7.88,0 14.29,6.41 14.29,14.29v4.61h-88.47v-4.61c0,-7.88 6.41,-14.29 14.3,-14.29zM273.71,122.48c2.47,-4.99 7.75,-8.21 13.43,-8.21h108.11c5.69,0 10.96,3.22 13.43,8.21 12.42,25.07 33.49,54.06 61.35,84.49h-257.68c27.86,-30.43 48.93,-59.42 61.35,-84.49zM272.89,452.41 L223.37,264.57h53.49l34.11,196.84c-8.73,0 -16.6,0 -26.41,0 -5.47,0 -10.27,-3.7 -11.67,-8.99zM374.81,488.06c-1.6,3.96 -5.85,6.63 -10.57,6.63h-46.09c-4.72,0 -8.96,-2.66 -10.57,-6.63 -1.52,-3.77 -3.25,-7.66 -5.18,-11.66h77.59c-1.93,4 -3.66,7.89 -5.18,11.66zM409.52,452.41c-1.4,5.29 -6.2,8.99 -11.67,8.99 -6,0 -20.63,0 -26.41,0l6.09,-35.13c0.71,-4.08 -2.03,-7.96 -6.11,-8.67 -4.07,-0.7 -7.96,2.03 -8.67,6.11l-6.53,37.69h-30.02l-34.11,-196.84h98.23l-22.45,129.58c-0.71,4.08 2.03,7.96 6.11,8.67 4.07,0.71 7.96,-2.02 8.67,-6.11l22.89,-132.14h53.49zM475.35,249.57h-268.3c-11.94,0 -21.65,-9.71 -21.65,-21.65 0,-3.28 2.67,-5.95 5.95,-5.95h299.7c3.28,0 5.95,2.67 5.95,5.95 0,11.94 -9.71,21.65 -21.65,21.65zM475.35,249.57"
    id="path_0"
  /></svg>
