<svg
  id="vector"
  xmlns="http://www.w3.org/2000/svg"
  width="64"
  height="64"
  viewBox="0 0 1600 1600"
><path
    fill="#000000"
    d="m801.2,1565h-2.4c-0.6,0 -1.3,0 -1.9,-0.1 -0.9,-0.1 -1.8,-0.2 -2.8,-0.4 -0.1,0 -0.3,-0.1 -0.4,-0.1 -0.3,-0.1 -0.7,-0.2 -1,-0.3 -57.6,-17.4 -114.5,-42 -169,-73.1 -52.3,-29.9 -102.8,-66.1 -149.9,-107.4 -91,-79.8 -169.5,-179.1 -227,-287.2 -111.4,-209.5 -161.6,-469.4 -137.8,-713.2 1,-10 8.9,-17.9 18.8,-18.9 0.9,-0.1 94.5,-9.8 221.9,-54.4 117.1,-41.1 287.7,-121 435.4,-268.8 8.2,-8.2 21.5,-8.2 29.7,0 147.7,147.7 318.3,227.7 435.4,268.8 127.4,44.7 220.9,54.3 221.9,54.4 10,1 17.9,8.9 18.8,18.9 23.8,243.8 -26.4,503.7 -137.8,713.1 -57.5,108.1 -136,207.4 -227,287.2 -47.1,41.3 -97.6,77.5 -149.9,107.4 -54.5,31.2 -111.3,55.8 -169,73.1 -0.2,0 -0.3,0.1 -0.5,0.1 -0.2,0.1 -0.5,0.1 -0.7,0.2 -1.1,0.3 -1.9,0.4 -2.9,0.5 -0.6,0.2 -1.2,0.2 -1.9,0.2zM149.3,404c-19.2,230.9 29.5,475.1 134.6,672.7 114.3,214.8 306.9,381.1 516.1,445.8 209.1,-64.7 401.8,-231 516.1,-445.8 105.1,-197.5 153.8,-441.8 134.6,-672.7 -33.5,-4.8 -112.4,-18.8 -213,-54 -77.3,-27 -151.4,-61.1 -220.3,-101.2 -80,-46.6 -153,-101.5 -217.4,-163.4 -64.4,61.9 -137.4,116.8 -217.4,163.4 -68.8,40.1 -143,74.1 -220.3,101.2 -100.6,35.2 -179.5,49.1 -213,54z"
    id="path_0"
  /><path
    fill="#000000"
    d="m800,1417.7c-2.5,0 -5,-0.5 -7.4,-1.4 -84.2,-31.7 -167,-83.5 -239.6,-149.8s-135.8,-147.9 -182.6,-235.9c-82.4,-154.8 -127.6,-342.3 -127.3,-528 0,-9.7 6.7,-18.1 16.1,-20.4 136.2,-32.4 338.2,-103 527.6,-254.9 7.7,-6.2 18.6,-6.2 26.3,0 189.3,151.9 391.4,222.5 527.6,254.9 9.4,2.3 16.1,10.7 16.1,20.4 0.3,185.7 -44.9,373.2 -127.3,528 -46.8,88 -109.9,169.5 -182.6,235.9 -72.6,66.3 -155.4,118.1 -239.6,149.8 -2.3,0.9 -4.8,1.4 -7.3,1.4zM285.3,519.1c2.3,173.5 45.5,347.5 122.3,491.8 89.7,168.6 232.4,300.6 392.5,363.3 160,-62.7 302.8,-194.7 392.5,-363.3 76.8,-144.3 119.9,-318.3 122.3,-491.8 -77.9,-19.6 -155.1,-46.1 -229.7,-79 -103.6,-45.7 -199.4,-102.7 -285.1,-169.6 -85.7,66.9 -181.5,123.9 -285.1,169.6 -74.6,32.9 -151.8,59.5 -229.7,79z"
    id="path_1"
  /><path
    fill="#000000"
    d="m800,1087.8c-76.9,0 -149.2,-29.9 -203.5,-84.3 -54.4,-54.4 -84.3,-126.7 -84.3,-203.5 0,-76.9 29.9,-149.2 84.3,-203.5 54.4,-54.4 126.7,-84.3 203.5,-84.3 76.9,0 149.2,29.9 203.5,84.3 54.4,54.4 84.3,126.7 84.3,203.5 0,76.9 -29.9,149.2 -84.3,203.5 -54.3,54.4 -126.6,84.3 -203.5,84.3zM800,554.2c-135.6,0 -245.8,110.3 -245.8,245.8s110.3,245.8 245.8,245.8 245.8,-110.3 245.8,-245.8 -110.2,-245.8 -245.8,-245.8z"
    id="path_2"
  /><path
    fill="#000000"
    d="m742.3,921c-5.6,0 -10.9,-2.2 -14.8,-6.2l-84.5,-84.5c-8.2,-8.2 -8.2,-21.5 0,-29.7s21.5,-8.2 29.7,0l69.6,69.6 185.1,-185.1c8.2,-8.2 21.5,-8.2 29.7,0s8.2,21.5 0,29.7l-200,200c-3.9,4 -9.3,6.2 -14.8,6.2z"
    id="path_3"
  /></svg>
