<svg
  id="vector"
  xmlns="http://www.w3.org/2000/svg"
  width="64"
  height="64"
  viewBox="0 0 61 52"
><path
    fill="#000000"
    fill-rule="nonzero"
    d="m52,15.317v-8.317c0,-0.552 0.448,-1 1,-1s1,0.448 1,1c0,1.657 1.343,3 3,3s3,-1.343 3,-3c0.003,-3.148 -2.098,-5.91 -5.133,-6.748 -3.035,-0.837 -6.255,0.456 -7.867,3.161 -1.612,-2.704 -4.832,-3.998 -7.867,-3.161 -3.035,0.837 -5.136,3.6 -5.133,6.748v6.275c-1.393,0.523 -2.724,1.197 -3.97,2.01 -2.603,1.672 -5.8,2.143 -8.774,1.291 -6.525,-1.813 -13.485,0.677 -17.38,6.218 -3.894,5.541 -3.879,12.933 0.037,18.458 3.916,5.525 10.887,7.987 17.405,6.148 2.959,-0.842 6.137,-0.36 8.712,1.323 3.239,2.144 7.039,3.284 10.923,3.277 0.799,-0 1.597,-0.047 2.391,-0.139 8.344,-0.977 15.185,-7.067 17.122,-15.242s-1.447,-16.687 -8.466,-21.302zM37,24c1.267,-0.005 2.394,-0.806 2.816,-2h6.368c0.371,1.062 1.308,1.825 2.423,1.974s2.219,-0.341 2.856,-1.268c2.655,2.96 3.912,6.917 3.453,10.866 -0.734,6.453 -5.803,11.557 -12.25,12.335 -0.553,0.063 -1.109,0.094 -1.666,0.093 -2.727,0.004 -5.396,-0.796 -7.671,-2.3 -4.033,-2.619 -8.999,-3.374 -13.629,-2.073 -1.308,0.364 -2.675,0.463 -4.022,0.291 -3.679,-0.52 -6.767,-3.037 -8.017,-6.536s-0.458,-7.403 2.058,-10.137c2.516,-2.734 6.341,-3.848 9.931,-2.892 4.645,1.307 9.628,0.558 13.682,-2.059 0.217,-0.144 0.444,-0.27 0.668,-0.4v1.106c0,1.657 1.343,3 3,3zM40,20v-2h6v2zM46,16h-6v-2h6zM46,12h-6v-5c0,-0.552 0.448,-1 1,-1s1,0.448 1,1c0,1.657 1.343,3 3,3 0.341,-0.003 0.68,-0.066 1,-0.184zM53,2c2.76,0.003 4.997,2.24 5,5 0,0.552 -0.448,1 -1,1s-1,-0.448 -1,-1c0,-1.657 -1.343,-3 -3,-3s-3,1.343 -3,3v14c0,0.552 -0.448,1 -1,1s-1,-0.448 -1,-1v-14c0.003,-2.76 2.24,-4.997 5,-5zM41,2c2.76,0.003 4.997,2.24 5,5 0,0.552 -0.448,1 -1,1s-1,-0.448 -1,-1c0,-1.657 -1.343,-3 -3,-3s-3,1.343 -3,3v14c0,0.552 -0.448,1 -1,1s-1,-0.448 -1,-1v-14c0.003,-2.76 2.24,-4.997 5,-5zM58.9,34c-0.942,8.311 -7.475,14.883 -15.78,15.874 -4.203,0.512 -8.452,-0.488 -11.985,-2.822 -3.06,-1.999 -6.836,-2.574 -10.353,-1.577 -3.962,1.121 -8.216,0.438 -11.628,-1.868 -3.411,-2.305 -5.633,-5.998 -6.07,-10.091 -0.446,-3.962 0.832,-7.924 3.51,-10.877 3.546,-3.946 9.018,-5.548 14.132,-4.139 3.528,1.005 7.317,0.441 10.4,-1.547 0.911,-0.593 1.873,-1.103 2.874,-1.527v2.208c-0.611,0.29 -1.201,0.62 -1.768,0.989 -3.57,2.303 -7.958,2.959 -12.045,1.8 -4.324,-1.187 -8.949,0.134 -11.993,3.426 -3.044,3.292 -4,8.006 -2.478,12.224 1.521,4.218 5.266,7.236 9.711,7.827 1.61,0.203 3.245,0.085 4.809,-0.348 4.074,-1.146 8.443,-0.482 11.993,1.821 2.602,1.718 5.653,2.632 8.771,2.627 0.635,0.001 1.269,-0.034 1.9,-0.106 7.37,-0.894 13.162,-6.731 14,-14.107 0.528,-4.541 -0.93,-9.089 -4,-12.476 -0.3,-0.332 -0.6,-0.629 -0.9,-0.915v-2.626c4.988,3.825 7.607,9.984 6.9,16.23z"
    id="path_0"
  /><path
    fill="#000000"
    fill-rule="nonzero"
    d="m29,34c-0.613,-0.007 -1.192,-0.28 -1.588,-0.748 -0.759,-0.799 -1.813,-1.252 -2.916,-1.252s-2.157,0.453 -2.916,1.252c-0.39,0.473 -0.972,0.748 -1.586,0.748s-1.195,-0.274 -1.586,-0.748c-0.758,-0.8 -1.811,-1.253 -2.913,-1.253s-2.155,0.453 -2.913,1.253c-0.394,0.468 -0.972,0.741 -1.583,0.748 -0.552,0 -1,0.448 -1,1s0.448,1 1,1c1.101,-0.004 2.153,-0.456 2.913,-1.253 0.39,-0.473 0.971,-0.747 1.584,-0.747s1.194,0.274 1.584,0.747c0.758,0.8 1.812,1.253 2.914,1.253s2.156,-0.453 2.914,-1.253c0.391,-0.474 0.974,-0.748 1.588,-0.748s1.197,0.274 1.588,0.748c0.761,0.797 1.814,1.249 2.916,1.253 0.552,0 1,-0.448 1,-1s-0.448,-1 -1,-1z"
    id="path_1"
  /><path
    fill="#000000"
    fill-rule="nonzero"
    d="m31.992,28c-0.611,-0.007 -1.189,-0.279 -1.583,-0.747 -0.758,-0.8 -1.811,-1.253 -2.913,-1.253s-2.155,0.453 -2.913,1.253c-0.394,0.468 -0.972,0.74 -1.583,0.747 -0.552,0 -1,0.448 -1,1s0.448,1 1,1c1.101,-0.004 2.153,-0.456 2.913,-1.253 0.39,-0.473 0.971,-0.747 1.584,-0.747s1.194,0.274 1.584,0.747c0.758,0.8 1.812,1.253 2.914,1.253s2.156,-0.453 2.914,-1.253c0.391,-0.474 0.974,-0.748 1.588,-0.748s1.197,0.274 1.588,0.748c0.761,0.797 1.814,1.249 2.916,1.253 0.552,0 1,-0.448 1,-1s-0.448,-1 -1,-1c-0.613,-0.007 -1.192,-0.28 -1.588,-0.748 -0.759,-0.799 -1.813,-1.252 -2.916,-1.252s-2.157,0.453 -2.916,1.252c-0.396,0.468 -0.975,0.741 -1.588,0.748z"
    id="path_2"
  /><path
    fill="#000000"
    fill-rule="nonzero"
    d="m38.495,32c-1.101,0.004 -2.152,0.456 -2.912,1.253 -0.394,0.468 -0.972,0.74 -1.583,0.747 -0.552,0 -1,0.448 -1,1s0.448,1 1,1c1.101,-0.004 2.153,-0.456 2.913,-1.253 0.39,-0.473 0.971,-0.747 1.584,-0.747s1.194,0.274 1.584,0.747c0.758,0.8 1.812,1.253 2.914,1.253s2.156,-0.453 2.914,-1.253c0.391,-0.474 0.974,-0.748 1.588,-0.748s1.197,0.274 1.588,0.748c0.761,0.797 1.814,1.249 2.916,1.253 0.552,0 1,-0.448 1,-1s-0.448,-1 -1,-1c-0.613,-0.007 -1.192,-0.28 -1.588,-0.748 -0.759,-0.799 -1.813,-1.252 -2.916,-1.252s-2.157,0.453 -2.916,1.252c-0.39,0.473 -0.972,0.748 -1.586,0.748s-1.195,-0.274 -1.586,-0.748c-0.761,-0.796 -1.813,-1.248 -2.914,-1.252z"
    id="path_3"
  /></svg>
