<svg
  id="vector"
  xmlns="http://www.w3.org/2000/svg"
  width="64"
  height="64"
  viewBox="0 0 468 468"
><path
    fill="#000000"
    d="m265.24,211.33c0,-17.36 -14.08,-31.49 -31.39,-31.49 -17.31,0 -31.39,14.13 -31.39,31.49 0,14.6 9.96,26.91 23.42,30.46l0.16,33.36c0.02,4.41 3.6,7.85 8,7.85h0.04c4.42,0 7.98,-3.46 7.96,-7.88l-0.16,-33.35c13.43,-3.57 23.36,-15.86 23.36,-30.44zM233.85,226.82c-8.49,0 -15.39,-6.95 -15.39,-15.49s6.9,-15.49 15.39,-15.49c8.49,0 15.39,6.95 15.39,15.49s-6.91,15.49 -15.39,15.49z"
    id="path_0"
  /><path
    fill="#000000"
    d="m437.97,202.01c-13.78,0 -25.42,8.99 -28.94,21.99h-53.85c3.16,-15 5.46,-30 7.24,-46h39.07c4.42,0 7.5,-3.27 7.5,-7.69v-76.4c13,-3.49 22.32,-15.13 22.32,-28.92 0,-16.54 -13.35,-29.99 -29.9,-29.99 -16.56,0 -30.22,13.45 -30.22,29.99 0,13.76 9.8,25.37 21.8,28.89v68.11h-28.92c1.16,-12 2.09,-24.92 2.95,-37.67 0.34,-5.11 -4.26,-9 -9.21,-8.23 -9.5,1.82 -19.11,3.19 -28.8,3.19 -32.19,-0 -61.77,-14.6 -89.94,-44.18 -4.01,-3.41 -7.95,-3.34 -11.82,0.22 -29.92,35.1 -71.44,49.69 -117.08,40.77 -4.97,-0.97 -9.86,3.13 -9.52,8.23 0.88,12.94 1.8,25.66 2.93,37.66h-26.59v-68.11c12,-3.52 21.9,-15.14 21.9,-28.89 0,-16.54 -13.51,-29.99 -30.07,-29.99s-29.97,13.45 -29.97,29.99c0,13.79 9.14,25.42 22.14,28.92v76.4c0,4.42 3.41,7.69 7.83,7.69h36.38c1.77,16 4.02,31 7.13,46h-53.38c-3.52,-13 -15.15,-21.99 -28.94,-21.99 -16.56,0 -30.03,13.46 -30.03,30 0,16.54 13.47,29.99 30.03,29.99 13.78,0 25.42,-8.99 28.94,-21.99h57.2c4.28,16.03 10.34,30.91 17.09,46h-64.42c-4.42,0 -7.83,3.27 -7.83,7.69v80.41c-13,3.51 -22.11,15.13 -22.11,28.91 0,16.54 13.43,29.99 29.99,29.99 16.56,0 30.09,-13.45 30.09,-29.99 0,-13.77 -8.97,-25.4 -21.97,-28.91v-72.1h65.41c20.49,32 49.78,54.54 88.76,69.08 1.88,0.56 3.77,0.57 5.65,0.01 38.62,-14.78 67.71,-38.09 88.13,-69.09h68.05v72.1c-12,3.51 -21.78,15.13 -21.78,28.91 0,16.54 13.6,29.99 30.16,29.99s29.84,-13.45 29.84,-29.99c0,-13.77 -9.22,-25.4 -22.22,-28.91v-80.41c0,-4.42 -3.08,-7.69 -7.5,-7.69h-67.34c6.88,-15.05 12.92,-29.99 17.19,-46h57.68c3.52,13 15.15,21.99 28.94,21.99 16.56,-0 30.03,-13.46 30.03,-30s-13.47,-29.99 -30.03,-29.99zM387.52,64.99c0,-7.72 6.29,-13.99 14.03,-13.99s14.03,6.28 14.03,13.99 -6.29,13.99 -14.03,13.99 -14.03,-6.28 -14.03,-13.99zM54.76,64.99c0,-7.72 6.29,-13.99 14.03,-13.99s14.03,6.28 14.03,13.99 -6.29,13.99 -14.03,13.99 -14.03,-6.28 -14.03,-13.99zM30.03,245.99c-7.74,0 -14.03,-6.28 -14.03,-13.99 0,-7.72 6.29,-13.99 14.03,-13.99s14.03,6.28 14.03,13.99c0,7.72 -6.29,13.99 -14.03,13.99zM82.86,403.01c0,7.72 -6.29,13.99 -14.03,13.99s-14.03,-6.28 -14.03,-13.99 6.29,-13.99 14.03,-13.99 14.03,6.28 14.03,13.99zM415.53,403.01c0,7.72 -6.29,13.99 -14.03,13.99s-14.03,-6.28 -14.03,-13.99 6.29,-13.99 14.03,-13.99 14.03,6.28 14.03,13.99zM117.34,133.46c43.17,5.56 87.27,-7.88 116.32,-41.14 31.45,30.49 72.46,48.46 116.71,41.08 -7.48,102.81 -22.89,184.18 -116.44,221.45 -93.61,-36.4 -109.06,-118.06 -116.59,-221.39zM437.97,245.99c-7.74,0 -14.03,-6.28 -14.03,-13.99 0,-7.72 6.29,-13.99 14.03,-13.99s14.03,6.28 14.03,13.99c0,7.72 -6.29,13.99 -14.03,13.99z"
    id="path_1"
  /></svg>
