<svg
  id="vector"
  xmlns="http://www.w3.org/2000/svg"
  width="64"
  height="64"
  viewBox="0 0 48 48"
><path
    fill="#000000"
    d="M40.5,4H14.5C13.307,4 12.162,4.474 11.318,5.318C10.474,6.162 10,7.307 10,8.5V38H4.035C3.794,38 3.562,38.087 3.38,38.244C3.198,38.402 3.079,38.62 3.045,38.858C3.015,39.071 3,39.285 3,39.5C3.001,40.693 3.476,41.837 4.319,42.681C5.163,43.524 6.307,43.999 7.5,44H33.5C34.091,44 34.676,43.884 35.222,43.658C35.768,43.431 36.264,43.1 36.682,42.682C37.1,42.264 37.431,41.768 37.658,41.222C37.884,40.676 38,40.091 38,39.5V10H43.965C44.206,10 44.438,9.913 44.619,9.755C44.801,9.598 44.92,9.38 44.954,9.142C44.985,8.929 45,8.715 45,8.5C44.999,7.307 44.524,6.163 43.681,5.319C42.837,4.476 41.693,4.001 40.5,4ZM5.05,40H29.028C29.108,40.716 29.36,41.402 29.762,42H7.5C6.924,42 6.365,41.801 5.919,41.437C5.472,41.072 5.165,40.565 5.05,40V40ZM36,8.5V39.5C36,39.844 35.93,40.183 35.793,40.499C35.656,40.814 35.455,41.097 35.204,41.331C34.952,41.565 34.655,41.745 34.331,41.859C34.007,41.974 33.663,42.02 33.32,41.995C32.978,41.971 32.644,41.875 32.34,41.716C32.035,41.556 31.767,41.336 31.552,41.068C31.337,40.801 31.179,40.491 31.088,40.16C30.998,39.828 30.977,39.482 31.026,39.142C31.046,39 31.036,38.855 30.996,38.718C30.955,38.581 30.886,38.453 30.792,38.345C30.698,38.237 30.582,38.15 30.451,38.09C30.321,38.031 30.179,38 30.036,38H12V8.5C12,7.837 12.263,7.201 12.732,6.732C13.201,6.263 13.837,6 14.5,6H36.76C36.264,6.739 35.999,7.61 36,8.5V8.5ZM38.05,8C38.165,7.435 38.471,6.927 38.918,6.562C39.364,6.197 39.923,5.997 40.5,5.997C41.077,5.997 41.636,6.197 42.082,6.562C42.529,6.927 42.835,7.435 42.95,8H38.05Z"
    id="path_0"
  /><path
    fill="#000000"
    d="M20.667,21.1C21.021,21.307 21.424,21.416 21.833,21.416C22.243,21.416 22.646,21.307 23,21.1L28.333,18.021C28.688,17.816 28.983,17.522 29.188,17.167C29.393,16.812 29.5,16.41 29.5,16C29.5,15.59 29.393,15.188 29.188,14.833C28.983,14.478 28.688,14.184 28.333,13.979L23,10.9C22.645,10.695 22.243,10.588 21.833,10.588C21.424,10.588 21.022,10.696 20.667,10.901C20.312,11.105 20.018,11.4 19.813,11.755C19.608,12.109 19.5,12.512 19.5,12.921V19.079C19.497,19.489 19.604,19.893 19.809,20.248C20.014,20.603 20.311,20.897 20.667,21.1ZM21.5,12.921C21.499,12.862 21.514,12.804 21.543,12.753C21.573,12.702 21.615,12.66 21.667,12.632C21.718,12.602 21.775,12.587 21.834,12.586C21.892,12.586 21.95,12.602 22,12.632L27.333,15.711C27.384,15.74 27.426,15.783 27.455,15.833C27.484,15.884 27.5,15.941 27.5,16C27.5,16.059 27.484,16.116 27.455,16.167C27.426,16.218 27.384,16.26 27.333,16.289L22,19.368C21.949,19.397 21.892,19.412 21.833,19.412C21.775,19.412 21.718,19.397 21.667,19.367C21.616,19.338 21.574,19.296 21.545,19.246C21.516,19.195 21.5,19.138 21.5,19.079V12.921Z"
    id="path_1"
  /><path
    fill="#000000"
    d="M17,26H31C31.265,26 31.52,25.895 31.707,25.707C31.895,25.52 32,25.265 32,25C32,24.735 31.895,24.48 31.707,24.293C31.52,24.105 31.265,24 31,24H17C16.735,24 16.48,24.105 16.293,24.293C16.105,24.48 16,24.735 16,25C16,25.265 16.105,25.52 16.293,25.707C16.48,25.895 16.735,26 17,26Z"
    id="path_2"
  /><path
    fill="#000000"
    d="M17,30H31C31.265,30 31.52,29.895 31.707,29.707C31.895,29.52 32,29.265 32,29C32,28.735 31.895,28.48 31.707,28.293C31.52,28.105 31.265,28 31,28H17C16.735,28 16.48,28.105 16.293,28.293C16.105,28.48 16,28.735 16,29C16,29.265 16.105,29.52 16.293,29.707C16.48,29.895 16.735,30 17,30Z"
    id="path_3"
  /><path
    fill="#000000"
    d="M17,34H31C31.265,34 31.52,33.895 31.707,33.707C31.895,33.52 32,33.265 32,33C32,32.735 31.895,32.48 31.707,32.293C31.52,32.105 31.265,32 31,32H17C16.735,32 16.48,32.105 16.293,32.293C16.105,32.48 16,32.735 16,33C16,33.265 16.105,33.52 16.293,33.707C16.48,33.895 16.735,34 17,34Z"
    id="path_4"
  /></svg>
