<svg
  id="vector"
  xmlns="http://www.w3.org/2000/svg"
  width="64"
  height="64"
  viewBox="0 0 512 512"
><path
    fill="#000000"
    d="m460.8,0h-409.6c-28.26,0.03 -51.17,22.93 -51.2,51.2v409.6c0.03,28.26 22.93,51.17 51.2,51.2h409.6c28.26,-0.03 51.17,-22.93 51.2,-51.2v-409.6c-0.03,-28.26 -22.93,-51.17 -51.2,-51.2zM494.93,460.8c0,18.85 -15.28,34.13 -34.13,34.13h-409.6c-18.85,0 -34.13,-15.28 -34.13,-34.13v-409.6c0,-18.85 15.28,-34.13 34.13,-34.13h409.6c18.85,0 34.13,15.28 34.13,34.13z"
    id="path_0"
  /><path
    fill="#000000"
    d="m64,93.87c16.5,0 29.87,-13.37 29.87,-29.87s-13.37,-29.87 -29.87,-29.87 -29.87,13.37 -29.87,29.87 13.37,29.87 29.87,29.87zM64,51.2c7.07,0 12.8,5.73 12.8,12.8s-5.73,12.8 -12.8,12.8 -12.8,-5.73 -12.8,-12.8 5.73,-12.8 12.8,-12.8z"
    id="path_1"
  /><path
    fill="#000000"
    d="m448,34.13c-16.5,0 -29.87,13.37 -29.87,29.87s13.37,29.87 29.87,29.87 29.87,-13.37 29.87,-29.87c0,-7.92 -3.15,-15.52 -8.75,-21.12s-13.2,-8.75 -21.12,-8.75zM448,76.8c-7.07,0 -12.8,-5.73 -12.8,-12.8s5.73,-12.8 12.8,-12.8 12.8,5.73 12.8,12.8 -5.73,12.8 -12.8,12.8z"
    id="path_2"
  /><path
    fill="#000000"
    d="m64,418.13c-16.5,0 -29.87,13.37 -29.87,29.87s13.37,29.87 29.87,29.87 29.87,-13.37 29.87,-29.87 -13.37,-29.87 -29.87,-29.87zM64,460.8c-7.07,0 -12.8,-5.73 -12.8,-12.8s5.73,-12.8 12.8,-12.8 12.8,5.73 12.8,12.8 -5.73,12.8 -12.8,12.8z"
    id="path_3"
  /><path
    fill="#000000"
    d="m448,418.13c-16.5,0 -29.87,13.37 -29.87,29.87s13.37,29.87 29.87,29.87 29.87,-13.37 29.87,-29.87 -13.37,-29.87 -29.87,-29.87zM448,460.8c-7.07,0 -12.8,-5.73 -12.8,-12.8s5.73,-12.8 12.8,-12.8 12.8,5.73 12.8,12.8 -5.73,12.8 -12.8,12.8z"
    id="path_4"
  /><path
    fill="#000000"
    d="m451.83,144.82 l-15.36,-25.6c-3.1,-5.13 -8.64,-8.27 -14.64,-8.29h-331.67c-5.99,0.02 -11.54,3.16 -14.64,8.29l-15.36,25.6c-3.16,5.27 -3.25,11.84 -0.22,17.19s8.7,8.66 14.85,8.66h362.39c6.15,0 11.82,-3.31 14.85,-8.66 3.03,-5.35 2.95,-11.92 -0.22,-17.19zM74.8,153.6 L90.16,128h331.67l15.36,25.6z"
    id="path_5"
  /><path
    fill="#000000"
    d="m451.83,221.62 l-15.36,-25.6c-3.1,-5.13 -8.64,-8.27 -14.64,-8.29h-331.67c-5.99,0.02 -11.54,3.16 -14.64,8.29l-15.36,25.6c-3.16,5.27 -3.25,11.84 -0.22,17.19s8.7,8.66 14.85,8.66h362.39c6.15,0 11.82,-3.31 14.85,-8.66 3.03,-5.35 2.95,-11.92 -0.22,-17.19zM74.8,230.4 L90.16,204.8h331.67l15.36,25.6z"
    id="path_6"
  /><path
    fill="#000000"
    d="m451.83,298.42 l-15.36,-25.6c-3.1,-5.13 -8.64,-8.27 -14.64,-8.29h-331.67c-5.99,0.02 -11.54,3.16 -14.64,8.29l-15.36,25.6c-3.16,5.27 -3.25,11.84 -0.22,17.19s8.7,8.66 14.85,8.66h362.39c6.15,0 11.82,-3.31 14.85,-8.66 3.03,-5.35 2.95,-11.92 -0.22,-17.19zM74.8,307.2 L90.16,281.6h331.67l15.36,25.6z"
    id="path_7"
  /><path
    fill="#000000"
    d="m436.46,349.61c-3.1,-5.12 -8.64,-8.26 -14.63,-8.28h-331.67c-5.99,0.02 -11.54,3.16 -14.64,8.29l-15.36,25.6c-3.16,5.27 -3.25,11.84 -0.22,17.19s8.7,8.66 14.85,8.66h362.39c6.15,0 11.82,-3.31 14.85,-8.66 3.03,-5.35 2.95,-11.92 -0.22,-17.19zM74.8,384 L90.16,358.4h331.67l15.36,25.6z"
    id="path_8"
  /></svg>
