<svg id="vector" xmlns="http://www.w3.org/2000/svg" width="64" height="64" viewBox="0 0 480 480"><path fill="#000000" d="M400,176h-60.99c18.66,-19.32 29.06,-45.14 28.99,-72c0,-4.42 -3.58,-8 -8,-8h-56V80c0,-4.42 -3.58,-8 -8,-8h-32c-4.42,0 -8,3.58 -8,8v16h-8V40c0,-13.26 10.74,-24 24,-24s24,10.74 24,24c0,4.42 3.58,8 8,8s8,-3.58 8,-8c0,-22.09 -17.91,-40 -40,-40c-22.09,0 -40,17.91 -40,40v56h-8V80c0,-4.42 -3.58,-8 -8,-8h-32c-4.42,0 -8,3.58 -8,8v16h-56c-4.42,0 -8,3.58 -8,8c-0.01,26.87 10.43,52.69 29.1,72H80c-4.42,0 -8,3.58 -8,8v208c0,4.42 3.58,8 8,8h8v72c0,4.42 3.58,8 8,8h24c3.91,-0 7.25,-2.83 7.89,-6.69l5.78,-34.63c0.64,-3.85 3.98,-6.68 7.89,-6.68h196.9c3.91,0 7.24,2.83 7.89,6.68l5.78,34.63c0.64,3.86 3.98,6.69 7.89,6.69h24c4.42,0 8,-3.58 8,-8v-72h8c4.42,0 8,-3.58 8,-8V184C408,179.58 404.42,176 400,176zM272,88h16v8h-16V88zM192,88h16v8h-16V88zM128.36,112h223.29c-2.3,25.74 -15.83,49.16 -36.98,64h-149.24C144.22,161.19 130.65,137.76 128.36,112zM88,384V192h144v192H88zM376,464h-9.22l-4.66,-27.94c-1.9,-11.59 -11.93,-20.08 -23.67,-20.06H141.55c-11.74,-0.03 -21.77,8.47 -23.67,20.06L113.22,464H104v-64h272V464zM392,384H248V192h144V384z" id="path_0"/><path fill="#000000" d="M264,312c4.42,0 8,-3.58 8,-8v-32c0,-4.42 -3.58,-8 -8,-8s-8,3.58 -8,8v32C256,308.42 259.58,312 264,312z" id="path_1"/><path fill="#000000" d="M216,264c-4.42,0 -8,3.58 -8,8v32c0,4.42 3.58,8 8,8s8,-3.58 8,-8v-32C224,267.58 220.42,264 216,264z" id="path_2"/></svg>